<?xml version="1.0" encoding="UTF-8"?>
<svg xmlns="http://www.w3.org/2000/svg" viewBox="0 0 100 115.47">
  <defs>
    <clipPath id="hex-clip"><polygon points="50,0 100,28.87 100,86.6 50,115.47 0,86.6 0,28.87"/></clipPath>
  </defs>
  <polygon points="50,0 100,28.87 100,86.6 50,115.47 0,86.6 0,28.87" fill="#ffffff"/>
  <g clip-path="url(#hex-clip)">
    <g transform="translate(0 43.8029801325) scale(0.0827814569536)">
<path d="M185.838 170.928C185.838 187.152 191.391 200.872 202.607 212.087C213.822 223.412 227.542 228.965 243.766 228.965C259.99 228.965 273.71 223.412 284.925 212.087C296.14 200.872 301.802 187.152 301.802 170.928C301.802 154.813 296.14 141.093 284.925 129.878C273.71 118.663 259.99 113 243.766 113C227.542 113 213.822 118.663 202.607 129.878C191.391 141.093 185.838 154.813 185.838 170.928ZM161.339 170.928C161.339 148.498 169.178 129.551 185.076 113.98C200.864 98.5186 220.464 90.6787 243.766 90.6787C267.068 90.6787 286.667 98.5186 302.456 113.98C318.353 129.551 326.193 148.498 326.193 170.928C326.193 193.359 318.353 212.414 302.456 227.876C286.667 243.447 267.068 251.178 243.766 251.178C220.464 251.178 200.864 243.447 185.076 227.876C169.178 212.414 161.339 193.359 161.339 170.928ZM362.126 92.8564L424.518 92.9653C439.326 92.9653 451.848 97.7563 461.866 107.556C471.883 117.356 477.001 129.225 477.001 143.162C477.001 157.1 471.883 168.968 461.866 178.659C451.848 188.459 439.326 193.25 424.518 193.25H386.625V249H362.126V92.8564ZM424.518 115.287L386.625 115.178V170.928H424.518C432.14 170.928 438.782 168.315 444.226 162.979C449.671 157.644 452.393 151.002 452.393 143.162C452.393 135.322 449.671 128.68 444.226 123.345C438.782 117.9 432.14 115.287 424.518 115.287ZM494.75 92.8564H612.892V115.178H566.07V249H541.571V115.178H494.75V92.8564ZM639.787 249V92.8564H664.286V249H639.787ZM790.159 168.75L850.374 92.8564H871.607V249H847.107V135.322L790.159 206.643L733.32 135.322V249H708.821V92.8564H729.945L790.159 168.75ZM979.622 228.965C990.729 228.965 1000.42 224.827 1008.59 216.443C1016.75 208.167 1020.89 198.15 1020.89 186.608V92.8564H1045.5V186.608C1045.5 204.465 1039.07 219.709 1026.23 232.34C1013.38 244.971 997.915 251.178 979.622 251.178C961.329 251.178 945.867 244.862 933.019 232.231C920.17 219.601 913.855 204.465 913.855 186.608V92.8564H938.463V186.608C938.463 198.259 942.492 208.276 950.658 216.552C958.825 224.827 968.516 228.965 979.622 228.965ZM1161.35 204.356C1161.35 199.565 1159.83 195.646 1156.78 192.379C1153.73 189.112 1149.7 186.608 1144.91 184.757C1140.12 182.906 1134.79 181.272 1128.91 179.748C1123.03 178.224 1117.15 176.373 1111.27 174.195C1105.39 172.017 1099.94 169.404 1095.15 166.355C1090.36 163.306 1086.44 159.06 1083.39 153.397C1080.34 147.735 1078.82 140.984 1078.82 133.036C1078.82 121.058 1083.39 110.932 1092.65 102.874C1101.79 94.8164 1114.32 90.6787 1130.1 90.6787C1135.87 90.6787 1141.43 91.4409 1146.76 92.8564C1152.1 94.272 1156.56 95.9053 1160.05 97.8652C1163.53 99.8252 1166.69 101.676 1169.3 103.636C1171.92 105.596 1173.88 107.229 1175.18 108.536L1176.92 110.714L1161.35 126.394C1161.03 126.176 1160.59 125.631 1160.05 124.978C1159.5 124.325 1158.31 123.236 1156.35 121.711C1154.39 120.187 1152.32 118.88 1150.14 117.683C1147.96 116.485 1145.02 115.396 1141.43 114.416C1137.83 113.545 1134.02 113 1130.1 113C1122.05 113 1115.51 115.069 1110.61 118.989C1105.71 123.018 1103.32 127.7 1103.32 133.036C1103.32 137.827 1104.84 141.855 1107.89 145.122C1110.94 148.389 1114.86 151.002 1119.65 152.853C1124.44 154.704 1129.89 156.337 1135.77 157.862C1141.65 159.386 1147.53 161.128 1153.41 163.306C1159.29 165.484 1164.62 168.097 1169.41 171.146C1174.2 174.195 1178.23 178.55 1181.28 184.212C1184.33 189.875 1185.85 196.625 1185.85 204.465C1185.85 218.185 1180.84 229.509 1171.05 238.22C1161.14 246.931 1147.53 251.287 1130.1 251.287C1122.92 251.287 1116.17 250.416 1109.74 248.673C1103.32 246.931 1098.09 244.971 1093.95 242.576C1089.82 240.18 1086.22 237.785 1083.17 235.389C1080.12 232.994 1077.84 231.034 1076.53 229.4L1074.35 226.678L1089.92 211.107C1090.14 211.543 1090.69 212.196 1091.34 213.067C1091.99 213.938 1093.63 215.354 1096.02 217.423C1098.42 219.492 1101.14 221.343 1103.97 222.867C1106.8 224.392 1110.5 225.807 1115.19 227.114C1119.87 228.42 1124.88 228.965 1130.1 228.965C1139.69 228.965 1147.31 226.678 1152.97 221.887C1158.52 217.205 1161.35 211.325 1161.35 204.356Z" fill="#1E1951"/>
<path d="M202.607 212.087L207.935 206.81L207.923 206.797L207.91 206.784L202.607 212.087ZM284.925 212.087L279.622 206.784L279.609 206.797L279.596 206.81L284.925 212.087ZM185.076 113.98L179.828 108.622L179.828 108.622L185.076 113.98ZM302.456 113.98L307.704 108.622L307.703 108.622L302.456 113.98ZM302.456 227.876L297.227 222.5L297.208 222.518L297.189 222.536L302.456 227.876ZM185.076 227.876L190.342 222.536L190.324 222.518L190.305 222.5L185.076 227.876ZM185.838 170.928H178.338C178.338 189.072 184.633 204.72 197.303 217.391L202.607 212.087L207.91 206.784C198.15 197.024 193.338 185.233 193.338 170.928H185.838ZM202.607 212.087L197.278 217.365C209.955 230.166 225.618 236.465 243.766 236.465V228.965V221.465C229.466 221.465 217.689 216.658 207.935 206.81L202.607 212.087ZM243.766 228.965V236.465C261.914 236.465 277.576 230.166 290.254 217.365L284.925 212.087L279.596 206.81C269.843 216.658 258.066 221.465 243.766 221.465V228.965ZM284.925 212.087L290.228 217.391C302.873 204.746 309.302 189.109 309.302 170.928H301.802H294.302C294.302 185.196 289.408 196.998 279.622 206.784L284.925 212.087ZM301.802 170.928H309.302C309.302 152.849 302.868 137.214 290.228 124.575L284.925 129.878L279.622 135.181C289.413 144.973 294.302 156.777 294.302 170.928H301.802ZM284.925 129.878L290.228 124.575C277.584 111.93 261.947 105.5 243.766 105.5V113V120.5C258.033 120.5 269.836 125.395 279.622 135.181L284.925 129.878ZM243.766 113V105.5C225.585 105.5 209.948 111.93 197.303 124.575L202.607 129.878L207.91 135.181C217.696 125.395 229.498 120.5 243.766 120.5V113ZM202.607 129.878L197.303 124.575C184.638 137.24 178.338 152.886 178.338 170.928H185.838H193.338C193.338 156.74 198.144 144.947 207.91 135.181L202.607 129.878ZM161.339 170.928H168.839C168.839 150.474 175.895 133.471 190.324 119.339L185.076 113.98L179.828 108.622C162.462 125.631 153.839 146.521 153.839 170.928H161.339ZM185.076 113.98L190.323 119.339C204.642 105.316 222.329 98.1787 243.766 98.1787V90.6787V83.1787C218.599 83.1787 197.086 91.7209 179.828 108.622L185.076 113.98ZM243.766 90.6787V98.1787C265.203 98.1787 282.889 105.316 297.208 119.339L302.456 113.98L307.703 108.622C290.445 91.7209 268.933 83.1787 243.766 83.1787V90.6787ZM302.456 113.98L297.208 119.339C311.637 133.471 318.693 150.474 318.693 170.928H326.193H333.693C333.693 146.521 325.069 125.631 307.704 108.622L302.456 113.98ZM326.193 170.928H318.693C318.693 191.398 311.627 208.494 297.227 222.5L302.456 227.876L307.685 233.252C325.08 216.334 333.693 195.32 333.693 170.928H326.193ZM302.456 227.876L297.189 222.536C282.894 236.634 265.226 243.678 243.766 243.678V251.178V258.678C268.909 258.678 290.44 250.259 307.722 233.216L302.456 227.876ZM243.766 251.178V243.678C222.305 243.678 204.638 236.634 190.342 222.536L185.076 227.876L179.81 233.216C197.091 250.259 218.623 258.678 243.766 258.678V251.178ZM185.076 227.876L190.305 222.5C175.905 208.494 168.839 191.398 168.839 170.928H161.339H153.839C153.839 195.32 162.452 216.334 179.847 233.252L185.076 227.876ZM362.126 92.8564L362.139 85.3565L354.626 85.3433V92.8564H362.126ZM424.518 92.9653L424.505 100.465H424.518V92.9653ZM461.866 178.659L456.651 173.269L456.636 173.283L456.621 173.298L461.866 178.659ZM386.625 193.25V185.75H379.125V193.25H386.625ZM386.625 249V256.5H394.125V249H386.625ZM362.126 249H354.626V256.5H362.126V249ZM424.518 115.287L424.496 122.787L424.507 122.787H424.518V115.287ZM386.625 115.178L386.647 107.678L379.125 107.657V115.178H386.625ZM386.625 170.928H379.125V178.428H386.625V170.928ZM444.226 123.345L438.923 128.648L438.95 128.675L438.977 128.701L444.226 123.345ZM362.126 92.8564L362.113 100.356L424.505 100.465L424.518 92.9653L424.531 85.4653L362.139 85.3565L362.126 92.8564ZM424.518 92.9653V100.465C437.548 100.465 448.13 104.611 456.621 112.917L461.866 107.556L467.111 102.195C455.567 90.9018 441.105 85.4653 424.518 85.4653V92.9653ZM461.866 107.556L456.621 112.917C465.236 121.345 469.501 131.297 469.501 143.162H477.001H484.501C484.501 127.153 478.531 113.367 467.111 102.195L461.866 107.556ZM477.001 143.162H469.501C469.501 155.034 465.232 164.967 456.651 173.269L461.866 178.659L467.081 184.05C478.535 172.969 484.501 159.165 484.501 143.162H477.001ZM461.866 178.659L456.621 173.298C448.13 181.604 437.548 185.75 424.518 185.75V193.25V200.75C441.105 200.75 455.567 195.314 467.111 184.02L461.866 178.659ZM424.518 193.25V185.75H386.625V193.25V200.75H424.518V193.25ZM386.625 193.25H379.125V249H386.625H394.125V193.25H386.625ZM386.625 249V241.5H362.126V249V256.5H386.625V249ZM362.126 249H369.626V92.8564H362.126H354.626V249H362.126ZM424.518 115.287L424.539 107.787L386.647 107.678L386.625 115.178L386.604 122.678L424.496 122.787L424.518 115.287ZM386.625 115.178H379.125V170.928H386.625H394.125V115.178H386.625ZM386.625 170.928V178.428H424.518V170.928V163.428H386.625V170.928ZM424.518 170.928V178.428C434.033 178.428 442.58 175.094 449.476 168.336L444.226 162.979L438.977 157.623C434.984 161.536 430.247 163.428 424.518 163.428V170.928ZM444.226 162.979L449.476 168.336C456.416 161.535 459.893 152.937 459.893 143.162H452.393H444.893C444.893 149.067 442.925 153.753 438.977 157.623L444.226 162.979ZM452.393 143.162H459.893C459.893 133.387 456.416 124.79 449.476 117.988L444.226 123.345L438.977 128.701C442.925 132.571 444.893 137.257 444.893 143.162H452.393ZM444.226 123.345L449.53 118.041C442.619 111.13 434.042 107.787 424.518 107.787V115.287V122.787C430.237 122.787 434.945 124.67 438.923 128.648L444.226 123.345ZM494.75 92.8564V85.3564H487.25V92.8564H494.75ZM612.892 92.8564H620.392V85.3564H612.892V92.8564ZM612.892 115.178V122.678H620.392V115.178H612.892ZM566.07 115.178V107.678H558.57V115.178H566.07ZM566.07 249V256.5H573.57V249H566.07ZM541.571 249H534.071V256.5H541.571V249ZM541.571 115.178H549.071V107.678H541.571V115.178ZM494.75 115.178H487.25V122.678H494.75V115.178ZM494.75 92.8564V100.356H612.892V92.8564V85.3564H494.75V92.8564ZM612.892 92.8564H605.392V115.178H612.892H620.392V92.8564H612.892ZM612.892 115.178V107.678H566.07V115.178V122.678H612.892V115.178ZM566.07 115.178H558.57V249H566.07H573.57V115.178H566.07ZM566.07 249V241.5H541.571V249V256.5H566.07V249ZM541.571 249H549.071V115.178H541.571H534.071V249H541.571ZM541.571 115.178V107.678H494.75V115.178V122.678H541.571V115.178ZM494.75 115.178H502.25V92.8564H494.75H487.25V115.178H494.75ZM639.787 249H632.287V256.5H639.787V249ZM639.787 92.8564V85.3564H632.287V92.8564H639.787ZM664.286 92.8564H671.786V85.3564H664.286V92.8564ZM664.286 249V256.5H671.786V249H664.286ZM639.787 249H647.287V92.8564H639.787H632.287V249H639.787ZM639.787 92.8564V100.356H664.286V92.8564V85.3564H639.787V92.8564ZM664.286 92.8564H656.786V249H664.286H671.786V92.8564H664.286ZM664.286 249V241.5H639.787V249V256.5H664.286V249ZM790.159 168.75L784.284 173.412L790.159 180.817L796.035 173.412L790.159 168.75ZM850.374 92.8564V85.3564H846.75L844.498 88.1949L850.374 92.8564ZM871.607 92.8564H879.107V85.3564H871.607V92.8564ZM871.607 249V256.5H879.107V249H871.607ZM847.107 249H839.607V256.5H847.107V249ZM847.107 135.322H854.607V113.909L841.246 130.643L847.107 135.322ZM790.159 206.643L784.294 211.317L790.154 218.67L796.02 211.323L790.159 206.643ZM733.32 135.322L739.186 130.648L725.82 113.877V135.322H733.32ZM733.32 249V256.5H740.82V249H733.32ZM708.821 249H701.321V256.5H708.821V249ZM708.821 92.8564V85.3564H701.321V92.8564H708.821ZM729.945 92.8564L735.82 88.1949L733.568 85.3564H729.945V92.8564ZM790.159 168.75L796.035 173.412L856.249 97.518L850.374 92.8564L844.498 88.1949L784.284 164.089L790.159 168.75ZM850.374 92.8564V100.356H871.607V92.8564V85.3564H850.374V92.8564ZM871.607 92.8564H864.107V249H871.607H879.107V92.8564H871.607ZM871.607 249V241.5H847.107V249V256.5H871.607V249ZM847.107 249H854.607V135.322H847.107H839.607V249H847.107ZM847.107 135.322L841.246 130.643L784.298 201.963L790.159 206.643L796.02 211.323L852.968 140.002L847.107 135.322ZM790.159 206.643L796.025 201.969L739.186 130.648L733.32 135.322L727.455 139.997L784.294 211.317L790.159 206.643ZM733.32 135.322H725.82V249H733.32H740.82V135.322H733.32ZM733.32 249V241.5H708.821V249V256.5H733.32V249ZM708.821 249H716.321V92.8564H708.821H701.321V249H708.821ZM708.821 92.8564V100.356H729.945V92.8564V85.3564H708.821V92.8564ZM729.945 92.8564L724.07 97.518L784.284 173.412L790.159 168.75L796.035 164.089L735.82 88.1949L729.945 92.8564ZM1008.59 216.443L1003.25 211.175L1003.23 211.192L1003.21 211.21L1008.59 216.443ZM1020.89 92.8564V85.3564H1013.39V92.8564H1020.89ZM1045.5 92.8564H1053V85.3564H1045.5V92.8564ZM913.855 92.8564V85.3564H906.355V92.8564H913.855ZM938.463 92.8564H945.963V85.3564H938.463V92.8564ZM979.622 228.965V236.465C992.834 236.465 1004.44 231.45 1013.96 221.676L1008.59 216.443L1003.21 211.21C996.4 218.205 988.623 221.465 979.622 221.465V228.965ZM1008.59 216.443L1013.92 221.711C1023.46 212.047 1028.39 200.142 1028.39 186.608H1020.89H1013.39C1013.39 196.157 1010.04 204.288 1003.25 211.175L1008.59 216.443ZM1020.89 186.608H1028.39V92.8564H1020.89H1013.39V186.608H1020.89ZM1020.89 92.8564V100.356H1045.5V92.8564V85.3564H1020.89V92.8564ZM1045.5 92.8564H1038V186.608H1045.5H1053V92.8564H1045.5ZM1045.5 186.608H1038C1038 202.434 1032.4 215.757 1020.97 226.992L1026.23 232.34L1031.48 237.689C1045.75 223.662 1053 206.497 1053 186.608H1045.5ZM1026.23 232.34L1020.97 226.992C1009.56 238.207 996.002 243.678 979.622 243.678V251.178V258.678C999.829 258.678 1017.19 251.735 1031.48 237.689L1026.23 232.34ZM979.622 251.178V243.678C963.276 243.678 949.708 238.121 938.277 226.883L933.019 232.231L927.761 237.58C942.027 251.604 959.383 258.678 979.622 258.678V251.178ZM933.019 232.231L938.277 226.883C926.861 215.661 921.355 202.453 921.355 186.608H913.855H906.355C906.355 206.478 913.479 223.54 927.761 237.58L933.019 232.231ZM913.855 186.608H921.355V92.8564H913.855H906.355V186.608H913.855ZM913.855 92.8564V100.356H938.463V92.8564V85.3564H913.855V92.8564ZM938.463 92.8564H930.963V186.608H938.463H945.963V92.8564H938.463ZM938.463 186.608H930.963C930.963 200.19 935.74 212.112 945.32 221.82L950.658 216.552L955.997 211.284C949.243 204.44 945.963 196.327 945.963 186.608H938.463ZM950.658 216.552L945.32 221.82C954.83 231.457 966.418 236.465 979.622 236.465V228.965V221.465C970.614 221.465 962.82 218.198 955.997 211.284L950.658 216.552ZM1092.65 102.874L1097.57 108.531L1097.59 108.516L1097.6 108.502L1092.65 102.874ZM1175.18 108.536L1181.04 103.851L1180.78 103.527L1180.49 103.233L1175.18 108.536ZM1176.92 110.714L1182.25 115.999L1186.96 111.252L1182.78 106.029L1176.92 110.714ZM1161.35 126.394L1157.19 132.634L1162.33 136.057L1166.68 131.678L1161.35 126.394ZM1141.43 114.416L1143.4 107.18L1143.3 107.152L1143.19 107.127L1141.43 114.416ZM1110.61 118.989L1105.93 113.133L1105.89 113.164L1105.85 113.196L1110.61 118.989ZM1171.05 238.22L1176 243.853L1176.01 243.839L1176.03 243.826L1171.05 238.22ZM1074.35 226.678L1069.05 221.375L1064.3 226.122L1068.5 231.363L1074.35 226.678ZM1089.92 211.107L1096.63 207.753L1091.98 198.446L1084.62 205.804L1089.92 211.107ZM1152.97 221.887L1148.14 216.153L1148.13 216.162L1152.97 221.887ZM1161.35 204.356H1168.85C1168.85 197.766 1166.68 191.988 1162.26 187.262L1156.78 192.379L1151.3 197.496C1152.98 199.303 1153.85 201.365 1153.85 204.356H1161.35ZM1156.78 192.379L1162.26 187.262C1158.26 182.976 1153.19 179.914 1147.62 177.761L1144.91 184.757L1142.21 191.753C1146.22 193.302 1149.2 195.249 1151.3 197.496L1156.78 192.379ZM1144.91 184.757L1147.62 177.761C1142.47 175.775 1136.85 174.059 1130.79 172.488L1128.91 179.748L1127.02 187.008C1132.72 188.486 1137.77 190.037 1142.21 191.753L1144.91 184.757ZM1128.91 179.748L1130.79 172.488C1125.16 171.029 1119.52 169.255 1113.87 167.162L1111.27 174.195L1108.66 181.228C1114.77 183.491 1120.89 185.418 1127.02 187.008L1128.91 179.748ZM1111.27 174.195L1113.87 167.162C1108.4 165.134 1103.45 162.744 1099.18 160.028L1095.15 166.355L1091.12 172.682C1096.44 176.064 1102.38 178.9 1108.66 181.228L1111.27 174.195ZM1095.15 166.355L1099.18 160.028C1095.55 157.721 1092.49 154.467 1089.99 149.842L1083.39 153.397L1076.79 156.953C1080.39 163.652 1085.17 168.891 1091.12 172.682L1095.15 166.355ZM1083.39 153.397L1089.99 149.842C1087.65 145.494 1086.32 140.022 1086.32 133.036H1078.82H1071.32C1071.32 141.946 1073.03 149.976 1076.79 156.953L1083.39 153.397ZM1078.82 133.036H1086.32C1086.32 123.241 1089.94 115.173 1097.57 108.531L1092.65 102.874L1087.72 97.2173C1076.84 106.691 1071.32 118.875 1071.32 133.036H1078.82ZM1092.65 102.874L1097.6 108.502C1105.04 101.951 1115.63 98.1787 1130.1 98.1787V90.6787V83.1787C1113 83.1787 1098.55 87.6817 1087.69 97.2463L1092.65 102.874ZM1130.1 90.6787V98.1787C1135.21 98.1787 1140.11 98.8516 1144.84 100.106L1146.76 92.8564L1148.69 85.6072C1142.74 84.0302 1136.54 83.1787 1130.1 83.1787V90.6787ZM1146.76 92.8564L1144.84 100.106C1149.86 101.438 1153.66 102.875 1156.37 104.402L1160.05 97.8652L1163.72 91.3284C1159.47 88.9357 1154.33 87.1056 1148.69 85.6072L1146.76 92.8564ZM1160.05 97.8652L1156.37 104.402C1159.86 106.363 1162.63 108.003 1164.8 109.636L1169.3 103.636L1173.8 97.6362C1170.75 95.3496 1167.21 93.2873 1163.72 91.3284L1160.05 97.8652ZM1169.3 103.636L1164.8 109.636C1167.31 111.518 1168.94 112.904 1169.88 113.839L1175.18 108.536L1180.49 103.233C1178.81 101.555 1176.52 99.6741 1173.8 97.6362L1169.3 103.636ZM1175.18 108.536L1169.33 113.221L1171.07 115.399L1176.92 110.714L1182.78 106.029L1181.04 103.851L1175.18 108.536ZM1176.92 110.714L1171.6 105.429L1156.03 121.109L1161.35 126.394L1166.68 131.678L1182.25 115.999L1176.92 110.714ZM1161.35 126.394L1165.51 120.153C1165.75 120.308 1165.92 120.448 1166.04 120.544C1166.16 120.643 1166.24 120.724 1166.29 120.774C1166.35 120.824 1166.38 120.859 1166.39 120.871C1166.4 120.884 1166.4 120.884 1166.39 120.866C1166.35 120.826 1166.29 120.756 1166.19 120.63C1166.14 120.569 1166.08 120.503 1166.02 120.425C1165.95 120.351 1165.88 120.264 1165.81 120.177L1160.05 124.978L1154.29 129.779C1154.48 130.017 1154.85 130.469 1155.18 130.832C1155.41 131.094 1156.15 131.94 1157.19 132.634L1161.35 126.394ZM1160.05 124.978L1165.81 120.177C1164.7 118.849 1162.94 117.337 1160.95 115.791L1156.35 121.711L1151.74 127.632C1152.63 128.323 1153.29 128.87 1153.74 129.277C1154.25 129.723 1154.36 129.872 1154.29 129.779L1160.05 124.978ZM1156.35 121.711L1160.95 115.791C1158.61 113.97 1156.19 112.452 1153.75 111.111L1150.14 117.683L1146.52 124.254C1148.44 125.309 1150.16 126.404 1151.74 127.632L1156.35 121.711ZM1150.14 117.683L1153.75 111.111C1150.85 109.512 1147.28 108.237 1143.4 107.18L1141.43 114.416L1139.45 121.652C1142.77 122.555 1145.08 123.457 1146.52 124.254L1150.14 117.683ZM1141.43 114.416L1143.19 107.127C1139.12 106.14 1134.71 105.5 1130.1 105.5V113V120.5C1133.33 120.5 1136.55 120.95 1139.66 121.705L1141.43 114.416ZM1130.1 113V105.5C1120.76 105.5 1112.45 107.916 1105.93 113.133L1110.61 118.989L1115.3 124.846C1118.58 122.222 1123.34 120.5 1130.1 120.5V113ZM1110.61 118.989L1105.85 113.196C1099.54 118.386 1095.82 125.072 1095.82 133.036H1103.32H1110.82C1110.82 130.328 1111.89 127.65 1115.38 124.782L1110.61 118.989ZM1103.32 133.036H1095.82C1095.82 139.576 1097.96 145.478 1102.41 150.239L1107.89 145.122L1113.37 140.005C1111.72 138.233 1110.82 136.077 1110.82 133.036H1103.32ZM1107.89 145.122L1102.41 150.239C1106.31 154.415 1111.21 157.632 1116.95 159.849L1119.65 152.853L1122.35 145.857C1118.51 144.372 1115.57 142.362 1113.37 140.005L1107.89 145.122ZM1119.65 152.853L1116.95 159.849C1122.11 161.844 1127.86 163.56 1133.88 165.122L1135.77 157.862L1137.65 150.602C1131.91 149.115 1126.77 147.565 1122.35 145.857L1119.65 152.853ZM1135.77 157.862L1133.88 165.122C1139.6 166.603 1145.22 168.274 1150.8 170.339L1153.41 163.306L1156.01 156.273C1149.83 153.983 1143.69 152.169 1137.65 150.602L1135.77 157.862ZM1153.41 163.306L1150.8 170.339C1156.23 172.352 1161.09 174.737 1165.39 177.473L1169.41 171.146L1173.44 164.819C1168.16 161.457 1162.34 158.616 1156.01 156.273L1153.41 163.306ZM1169.41 171.146L1165.39 177.473C1169.01 179.783 1172.19 183.149 1174.68 187.768L1181.28 184.212L1187.88 180.657C1184.27 173.952 1179.39 168.607 1173.44 164.819L1169.41 171.146ZM1181.28 184.212L1174.68 187.768C1177.02 192.123 1178.35 197.597 1178.35 204.465H1185.85H1193.35C1193.35 195.654 1191.64 187.626 1187.88 180.657L1181.28 184.212ZM1185.85 204.465H1178.35C1178.35 216.13 1174.2 225.384 1166.06 232.615L1171.05 238.22L1176.03 243.826C1187.49 233.635 1193.35 220.24 1193.35 204.465H1185.85ZM1171.05 238.22L1166.09 232.587C1157.94 239.757 1146.29 243.787 1130.1 243.787V251.287V258.787C1148.76 258.787 1164.33 254.106 1176 243.853L1171.05 238.22ZM1130.1 251.287V243.787C1123.53 243.787 1117.45 242.992 1111.7 241.435L1109.74 248.673L1107.78 255.912C1114.89 257.84 1122.3 258.787 1130.1 258.787V251.287ZM1109.74 248.673L1111.7 241.435C1105.6 239.779 1101.06 238.025 1097.71 236.085L1093.95 242.576L1090.2 249.066C1095.12 251.917 1101.04 254.083 1107.78 255.912L1109.74 248.673ZM1093.95 242.576L1097.71 236.085C1093.81 233.827 1090.52 231.626 1087.81 229.492L1083.17 235.389L1078.54 241.287C1081.92 243.944 1085.82 246.533 1090.2 249.066L1093.95 242.576ZM1083.17 235.389L1087.81 229.492C1084.69 227.041 1083.08 225.575 1082.39 224.715L1076.53 229.4L1070.67 234.086C1072.6 236.492 1075.56 238.946 1078.54 241.287L1083.17 235.389ZM1076.53 229.4L1082.39 224.715L1080.21 221.993L1074.35 226.678L1068.5 231.363L1070.67 234.086L1076.53 229.4ZM1074.35 226.678L1079.66 231.982L1095.23 216.411L1089.92 211.107L1084.62 205.804L1069.05 221.375L1074.35 226.678ZM1089.92 211.107L1083.22 214.462C1083.47 214.979 1083.75 215.402 1083.93 215.671C1084.12 215.957 1084.32 216.219 1084.47 216.424C1084.62 216.629 1084.79 216.846 1084.93 217.023C1085.07 217.212 1085.2 217.387 1085.34 217.567L1091.34 213.067L1097.34 208.567C1097.15 208.312 1096.97 208.078 1096.82 207.887C1096.67 207.683 1096.56 207.545 1096.47 207.424C1096.38 207.302 1096.35 207.265 1096.36 207.279C1096.37 207.29 1096.4 207.333 1096.44 207.403C1096.48 207.47 1096.55 207.59 1096.63 207.753L1089.92 211.107ZM1091.34 213.067L1085.34 217.567C1086.14 218.627 1087.19 219.62 1087.97 220.333C1088.85 221.14 1089.95 222.086 1091.12 223.099L1096.02 217.423L1100.92 211.747C1099.7 210.691 1098.78 209.895 1098.09 209.259C1097.75 208.947 1097.51 208.724 1097.36 208.569C1097.19 208.394 1097.22 208.409 1097.34 208.567L1091.34 213.067ZM1096.02 217.423L1091.12 223.099C1093.96 225.548 1097.13 227.704 1100.42 229.471L1103.97 222.867L1107.53 216.264C1105.15 214.982 1102.88 213.436 1100.92 211.747L1096.02 217.423ZM1103.97 222.867L1100.42 229.471C1103.9 231.346 1108.17 232.942 1113.17 234.338L1115.19 227.114L1117.2 219.89C1112.84 218.673 1109.71 217.437 1107.53 216.264L1103.97 222.867ZM1115.19 227.114L1113.17 234.338C1118.66 235.869 1124.37 236.465 1130.1 236.465V228.965V221.465C1125.38 221.465 1121.08 220.971 1117.2 219.89L1115.19 227.114ZM1130.1 228.965V236.465C1140.85 236.465 1150.4 233.888 1157.81 227.613L1152.97 221.887L1148.13 216.162C1144.22 219.468 1138.52 221.465 1130.1 221.465V228.965ZM1152.97 221.887L1157.8 227.621C1164.95 221.598 1168.85 213.662 1168.85 204.356H1161.35H1153.85C1153.85 208.988 1152.1 212.813 1148.14 216.153L1152.97 221.887Z" fill="#1E1951"/>
<path d="M65.7854 184.916L62.7801 190.519L56.6654 190.577L53.5559 185.03L56.5612 179.427L62.676 179.37L65.7854 184.916Z" fill="#EF882E"/>
<path d="M125.778 209.47L122.773 215.073L116.658 215.131L113.549 209.584L116.554 203.981L122.669 203.924L125.778 209.47Z" fill="#EF882E"/>
<path d="M105.004 155.697L101.998 161.3L95.8834 161.358L92.774 155.811L95.7793 150.208L101.894 150.151L105.004 155.697Z" fill="#EF882E"/>
<path d="M65.7855 155.697L62.7802 161.3L56.6654 161.358L53.5559 155.811L56.5612 150.208L62.676 150.151L65.7855 155.697Z" fill="#EF882E"/>
<path d="M49.9041 145.655L46.8938 150.719L40.779 150.776L37.6746 145.77L40.6849 140.706L46.7997 140.649L49.9041 145.655Z" fill="#EF882E"/>
<path d="M12.2535 150.298L9.23717 155.362L3.11043 155.419L1.62238e-05 150.412L3.01634 145.349L9.14307 145.291L12.2535 150.298Z" fill="#EF882E"/>
<path d="M16.8085 187.293L13.7922 192.357L7.66543 192.414L4.55501 187.407L7.57133 182.344L13.6981 182.286L16.8085 187.293Z" fill="#EF882E"/>
<path d="M131.796 124.3L128.78 129.364L122.653 129.421L119.543 124.414L122.559 119.351L128.686 119.293L131.796 124.3Z" fill="#EF882E"/>
<path d="M101.024 120.62L98.0092 125.812L91.8825 125.869L88.7709 120.735L91.786 115.544L97.9127 115.486L101.024 120.62Z" fill="#EF882E"/>
<path d="M87.4407 139.682L84.5581 145.048L78.6931 145.103L75.7108 139.792L78.5934 134.427L84.4583 134.372L87.4407 139.682Z" fill="#1E1951"/>
<path d="M72.2595 128.561L69.3761 133.837L63.5112 133.892L60.5297 128.671L63.4131 123.394L69.278 123.339L72.2595 128.561Z" fill="#1E1951"/>
<path d="M40.7321 172.588L37.8486 177.865L31.9837 177.92L29.0022 172.698L31.8856 167.422L37.7505 167.367L40.7321 172.588Z" fill="#1E1951"/>
<path d="M70.544 215.539L67.6606 220.815L61.7957 220.87L58.8141 215.649L61.6976 210.372L67.5625 210.317L70.544 215.539Z" fill="#1E1951"/>
<path d="M93.7321 199.561L90.8486 204.837L84.9837 204.892L82.0022 199.671L84.8856 194.394L90.7505 194.339L93.7321 199.561Z" fill="#1E1951"/>
<path d="M113.561 186.092L110.691 191.221L104.855 191.276L101.889 186.201L104.76 181.072L110.596 181.018L113.561 186.092Z" fill="#1E1951"/>
<path d="M129.632 169.682L127.043 174.486L121.775 174.535L119.096 169.781L121.685 164.977L126.953 164.928L129.632 169.682Z" fill="#1E1951"/>
<path d="M118.959 138.942L116.369 143.712L111.101 143.762L108.423 139.04L111.013 134.269L116.281 134.22L118.959 138.942Z" fill="#1E1951"/>
<path d="M151.975 126.549L147.996 133.51L139.909 133.586L135.801 126.7L139.78 119.739L147.867 119.663L151.975 126.549Z" fill="#1E1951"/>
<path d="M161.972 113.237L157.787 120.47L149.283 120.55L144.964 113.396L149.149 106.163L157.653 106.084L161.972 113.237Z" fill="#1E1951"/>
<path d="M201.915 110.578L198.158 117.248L190.519 117.319L186.638 110.721L190.395 104.052L198.034 103.98L201.915 110.578Z" fill="white"/>
<path d="M201.915 110.578L198.158 117.248L190.519 117.319L186.638 110.721L190.395 104.052L198.034 103.98L201.915 110.578Z" fill="white"/>
<path d="M201.915 110.578L198.158 117.248L190.519 117.319L186.638 110.721L190.395 104.052L198.034 103.98L201.915 110.578Z" fill="white"/>
<path d="M201.915 110.578L198.158 117.248L190.519 117.319L186.638 110.721L190.395 104.052L198.034 103.98L201.915 110.578Z" fill="white"/>
<path d="M201.915 110.578L198.158 117.248L190.519 117.319L186.638 110.721L190.395 104.052L198.034 103.98L201.915 110.578Z" fill="white"/>
<path d="M201.915 110.578L198.158 117.248L190.519 117.319L186.638 110.721L190.395 104.052L198.034 103.98L201.915 110.578Z" fill="white"/>
<path d="M176.635 127.439L172.263 135.184L163.377 135.267L158.862 127.605L163.233 119.86L172.119 119.777L176.635 127.439Z" fill="white"/>
<path d="M176.635 127.439L172.263 135.184L163.377 135.267L158.862 127.605L163.233 119.86L172.119 119.777L176.635 127.439Z" fill="white"/>
<path d="M176.635 127.439L172.263 135.184L163.377 135.267L158.862 127.605L163.233 119.86L172.119 119.777L176.635 127.439Z" fill="white"/>
<path d="M176.635 127.439L172.263 135.184L163.377 135.267L158.862 127.605L163.233 119.86L172.119 119.777L176.635 127.439Z" fill="white"/>
<path d="M176.635 127.439L172.263 135.184L163.377 135.267L158.862 127.605L163.233 119.86L172.119 119.777L176.635 127.439Z" fill="white"/>
<path d="M176.635 127.439L172.263 135.184L163.377 135.267L158.862 127.605L163.233 119.86L172.119 119.777L176.635 127.439Z" fill="white"/>
<path d="M167.393 185.213L163.369 192.52L155.186 192.596L151.027 185.366L155.05 178.06L163.233 177.984L167.393 185.213Z" fill="white"/>
<path d="M167.393 185.213L163.369 192.52L155.186 192.596L151.027 185.366L155.05 178.06L163.233 177.984L167.393 185.213Z" fill="white"/>
<path d="M167.393 185.213L163.369 192.52L155.186 192.596L151.027 185.366L155.05 178.06L163.233 177.984L167.393 185.213Z" fill="white"/>
<path d="M167.393 185.213L163.369 192.52L155.186 192.596L151.027 185.366L155.05 178.06L163.233 177.984L167.393 185.213Z" fill="white"/>
<path d="M167.393 185.213L163.369 192.52L155.186 192.596L151.027 185.366L155.05 178.06L163.233 177.984L167.393 185.213Z" fill="white"/>
<path d="M167.393 185.213L163.369 192.52L155.186 192.596L151.027 185.366L155.05 178.06L163.233 177.984L167.393 185.213Z" fill="white"/>
<path d="M144.945 214.5L149.195 207.572H157.695L161.945 214.5L157.695 221.428H149.195L144.945 214.5Z" fill="white"/>
<path d="M144.945 214.5L149.195 207.572H157.695L161.945 214.5L157.695 221.428H149.195L144.945 214.5Z" fill="white"/>
<path d="M144.945 214.5L149.195 207.572H157.695L161.945 214.5L157.695 221.428H149.195L144.945 214.5Z" fill="white"/>
<path d="M144.945 214.5L149.195 207.572H157.695L161.945 214.5L157.695 221.428H149.195L144.945 214.5Z" fill="white"/>
<path d="M144.945 214.5L149.195 207.572H157.695L161.945 214.5L157.695 221.428H149.195L144.945 214.5Z" fill="white"/>
<path d="M144.945 214.5L149.195 207.572H157.695L161.945 214.5L157.695 221.428H149.195L144.945 214.5Z" fill="white"/>
<path d="M203.17 216.406L200.063 222.073L193.744 222.132L190.532 216.524L193.639 210.858L199.958 210.799L203.17 216.406Z" fill="white"/>
<path d="M203.17 216.406L200.063 222.073L193.744 222.132L190.532 216.524L193.639 210.858L199.958 210.799L203.17 216.406Z" fill="white"/>
<path d="M203.17 216.406L200.063 222.073L193.744 222.132L190.532 216.524L193.639 210.858L199.958 210.799L203.17 216.406Z" fill="white"/>
<path d="M203.17 216.406L200.063 222.073L193.744 222.132L190.532 216.524L193.639 210.858L199.958 210.799L203.17 216.406Z" fill="white"/>
<path d="M203.17 216.406L200.063 222.073L193.744 222.132L190.532 216.524L193.639 210.858L199.958 210.799L203.17 216.406Z" fill="white"/>
<path d="M203.17 216.406L200.063 222.073L193.744 222.132L190.532 216.524L193.639 210.858L199.958 210.799L203.17 216.406Z" fill="white"/>
<path d="M136.861 108.297L134.157 112.94L128.661 112.992L125.87 108.4L128.575 103.756L134.07 103.705L136.861 108.297Z" fill="#1E1951"/>
<path d="M127.759 97.6984L125.057 102.659L119.561 102.71L116.767 97.8011L119.469 92.8404L124.965 92.789L127.759 97.6984Z" fill="#1E1951"/>
<path d="M106.561 226.438L103.691 231.567L97.855 231.621L94.8893 226.547L97.7597 221.418L103.596 221.364L106.561 226.438Z" fill="#1E1951"/>
<path d="M127.774 242.24L124.905 247.552L119.069 247.607L116.102 242.349L118.97 237.037L124.806 236.983L127.774 242.24Z" fill="#1E1951"/>
<path d="M134.843 226.932L131.974 232.246L126.138 232.3L123.171 227.041L126.04 221.728L131.876 221.673L134.843 226.932Z" fill="#1E1951"/>
<path d="M148.104 208.182L145.302 213.204L139.605 213.258L136.71 208.289L139.512 203.267L145.209 203.214L148.104 208.182Z" fill="#1E1951"/>
<path d="M148.601 221.681L144.798 228.764L137.06 228.837L133.126 221.826L136.929 214.742L144.667 214.67L148.601 221.681Z" fill="#1E1951"/>
<path d="M176.771 221.783L172.559 228.959L164 229.039L159.654 221.943L163.867 214.767L172.425 214.687L176.771 221.783Z" fill="#1E1951"/>
<path d="M147.537 154.224L144.015 160.405L136.856 160.472L133.22 154.358L136.741 148.178L143.9 148.111L147.537 154.224Z" fill="#EF882E"/>
<path d="M166.717 140.502L161.448 149.773L150.738 149.873L145.297 140.702L150.566 131.431L161.276 131.331L166.717 140.502Z" fill="#EF882E"/>
<path d="M173.498 156.829L169.585 163.686L161.63 163.76L157.589 156.977L161.503 150.12L169.457 150.046L173.498 156.829Z" fill="#EF882E"/>
<path d="M172.268 102.599L168.757 108.78L161.62 108.846L157.994 102.732L161.505 96.551L168.642 96.4843L172.268 102.599Z" fill="#EF882E"/>
<path d="M151.023 185.362L147.138 192.63L139.234 192.704L135.214 185.51L139.099 178.241L147.003 178.167L151.023 185.362Z" fill="#EF882E"/>
<path d="M162.403 229.183L158.619 235.873L150.926 235.945L147.017 229.327L150.802 222.637L158.494 222.565L162.403 229.183Z" fill="#EF882E"/>
<path d="M95.5594 237.245L92.5541 242.848L86.4393 242.906L83.3299 237.359L86.3352 231.756L92.4499 231.699L95.5594 237.245Z" fill="#EF882E"/>
<path d="M86.1371 171.13L82.8537 177.251L76.173 177.314L72.7758 171.254L76.0592 165.133L82.7398 165.07L86.1371 171.13Z" fill="#EF882E"/>
<path d="M145.945 199.5L150.195 192.572H158.695L162.945 199.5L158.695 206.428H150.195L145.945 199.5Z" fill="#1E1951"/>
<path d="M175.312 206.921L171.094 214.714L162.513 214.794L158.15 207.081L162.368 199.289L170.949 199.209L175.312 206.921Z" fill="white"/>
<path d="M175.312 206.921L171.094 214.714L162.513 214.794L158.15 207.081L162.368 199.289L170.949 199.209L175.312 206.921Z" fill="white"/>
<path d="M175.312 206.921L171.094 214.714L162.513 214.794L158.15 207.081L162.368 199.289L170.949 199.209L175.312 206.921Z" fill="white"/>
<path d="M175.312 206.921L171.094 214.714L162.513 214.794L158.15 207.081L162.368 199.289L170.949 199.209L175.312 206.921Z" fill="white"/>
<path d="M175.312 206.921L171.094 214.714L162.513 214.794L158.15 207.081L162.368 199.289L170.949 199.209L175.312 206.921Z" fill="white"/>
<path d="M175.312 206.921L171.094 214.714L162.513 214.794L158.15 207.081L162.368 199.289L170.949 199.209L175.312 206.921Z" fill="white"/>
<path d="M901.766 318.188L918.507 297.088H924.41V340.5H917.599V308.895L901.766 328.724L885.963 308.895V340.5H879.152V297.088H885.025L901.766 318.188ZM931.827 340.5L949.81 297.088H956.621L974.604 340.5H967.489L962.827 329.026H943.604L938.942 340.5H931.827ZM953.231 304.838L946.086 322.82H960.345L953.231 304.838ZM982.081 340.5V297.088H1000.37C1004.36 297.088 1007.69 298.39 1010.36 300.933C1012.99 303.506 1014.32 306.685 1014.32 310.438C1014.32 312.225 1014.02 313.89 1013.41 315.434C1012.81 316.978 1012.08 318.188 1011.23 319.066C1010.39 319.975 1009.54 320.731 1008.69 321.397C1007.84 322.063 1007.12 322.518 1006.51 322.76L1005.63 323.153L1015.56 340.5H1008.12L998.822 323.759H988.893V340.5H982.081ZM1007.48 310.438C1007.48 308.41 1006.78 306.715 1005.42 305.353C1004.06 303.99 1002.36 303.294 1000.37 303.294H988.893V317.553H1000.37C1002.36 317.553 1004.06 316.887 1005.42 315.524C1006.78 314.162 1007.48 312.467 1007.48 310.438ZM1032.3 297.088V318.188L1051.83 297.088H1060.52L1043.78 315.07L1061.76 340.5H1053.38L1039.12 320.035L1032.3 327.482V340.5H1025.49V297.088H1032.3ZM1068.6 340.5V297.088H1075.41V340.5H1068.6ZM1117.86 297.088H1124.67V340.5H1118.8L1094.61 309.197V340.5H1087.8V297.088H1093.67L1117.86 328.421V297.088ZM1160.94 317.553H1176.1V333.053C1175.95 333.265 1175.71 333.567 1175.38 333.931C1175.04 334.294 1174.29 334.96 1173.14 335.898C1171.99 336.837 1170.75 337.654 1169.41 338.351C1168.08 339.047 1166.36 339.683 1164.21 340.258C1162.06 340.833 1159.82 341.105 1157.52 341.105C1151.04 341.105 1145.59 338.956 1141.17 334.627C1136.78 330.328 1134.57 325.03 1134.57 318.794C1134.57 312.558 1136.78 307.29 1141.17 302.961C1145.59 298.662 1151.04 296.482 1157.52 296.482C1159.73 296.482 1161.84 296.785 1163.84 297.36C1165.87 297.936 1167.54 298.632 1168.87 299.449C1170.2 300.297 1171.35 301.114 1172.32 301.901C1173.32 302.719 1174.05 303.415 1174.5 303.99L1175.17 304.838L1170.84 309.197C1170.72 309.046 1170.56 308.834 1170.32 308.531C1170.08 308.229 1169.56 307.714 1168.72 306.927C1167.9 306.17 1167.02 305.504 1166.05 304.959C1165.11 304.414 1163.87 303.899 1162.36 303.415C1160.85 302.931 1159.21 302.688 1157.52 302.688C1153.04 302.688 1149.22 304.263 1146.07 307.381C1142.95 310.499 1141.38 314.313 1141.38 318.794C1141.38 323.305 1142.95 327.119 1146.07 330.237C1149.19 333.386 1153.01 334.93 1157.52 334.93C1159.03 334.93 1160.45 334.809 1161.81 334.506C1163.18 334.203 1164.3 333.84 1165.14 333.416C1166.02 332.992 1166.78 332.538 1167.45 332.114C1168.11 331.69 1168.57 331.327 1168.87 331.024L1169.32 330.57V323.759H1160.94V317.553Z" fill="#1E1951"/>
<path d="M901.766 318.188L900.982 318.81L901.766 319.797L902.549 318.81L901.766 318.188ZM918.507 297.088V296.088H918.024L917.724 296.466L918.507 297.088ZM924.41 297.088H925.41V296.088H924.41V297.088ZM924.41 340.5V341.5H925.41V340.5H924.41ZM917.599 340.5H916.599V341.5H917.599V340.5ZM917.599 308.895H918.599V306.039L916.817 308.271L917.599 308.895ZM901.766 328.724L900.984 329.347L901.765 330.327L902.547 329.348L901.766 328.724ZM885.963 308.895L886.745 308.271L884.963 306.035V308.895H885.963ZM885.963 340.5V341.5H886.963V340.5H885.963ZM879.152 340.5H878.152V341.5H879.152V340.5ZM879.152 297.088V296.088H878.152V297.088H879.152ZM885.025 297.088L885.808 296.466L885.508 296.088H885.025V297.088ZM901.766 318.188L902.549 318.81L919.29 297.709L918.507 297.088L917.724 296.466L900.982 317.567L901.766 318.188ZM918.507 297.088V298.088H924.41V297.088V296.088H918.507V297.088ZM924.41 297.088H923.41V340.5H924.41H925.41V297.088H924.41ZM924.41 340.5V339.5H917.599V340.5V341.5H924.41V340.5ZM917.599 340.5H918.599V308.895H917.599H916.599V340.5H917.599ZM917.599 308.895L916.817 308.271L900.984 328.1L901.766 328.724L902.547 329.348L918.38 309.518L917.599 308.895ZM901.766 328.724L902.548 328.1L886.745 308.271L885.963 308.895L885.181 309.518L900.984 329.347L901.766 328.724ZM885.963 308.895H884.963V340.5H885.963H886.963V308.895H885.963ZM885.963 340.5V339.5H879.152V340.5V341.5H885.963V340.5ZM879.152 340.5H880.152V297.088H879.152H878.152V340.5H879.152ZM879.152 297.088V298.088H885.025V297.088V296.088H879.152V297.088ZM885.025 297.088L884.241 297.709L900.982 318.81L901.766 318.188L902.549 317.567L885.808 296.466L885.025 297.088ZM931.827 340.5L930.903 340.117L930.331 341.5H931.827V340.5ZM949.81 297.088V296.088H949.142L948.886 296.705L949.81 297.088ZM956.621 297.088L957.545 296.705L957.289 296.088H956.621V297.088ZM974.604 340.5V341.5H976.1L975.528 340.117L974.604 340.5ZM967.489 340.5L966.563 340.876L966.816 341.5H967.489V340.5ZM962.827 329.026L963.754 328.65L963.5 328.026H962.827V329.026ZM943.604 329.026V328.026H942.931L942.677 328.65L943.604 329.026ZM938.942 340.5V341.5H939.615L939.868 340.876L938.942 340.5ZM953.231 304.838L954.161 304.47L953.233 302.125L952.301 304.469L953.231 304.838ZM946.086 322.82L945.157 322.451L944.613 323.82H946.086V322.82ZM960.345 322.82V323.82H961.816L961.275 322.452L960.345 322.82ZM931.827 340.5L932.751 340.883L950.734 297.471L949.81 297.088L948.886 296.705L930.903 340.117L931.827 340.5ZM949.81 297.088V298.088H956.621V297.088V296.088H949.81V297.088ZM956.621 297.088L955.697 297.471L973.68 340.883L974.604 340.5L975.528 340.117L957.545 296.705L956.621 297.088ZM974.604 340.5V339.5H967.489V340.5V341.5H974.604V340.5ZM967.489 340.5L968.416 340.124L963.754 328.65L962.827 329.026L961.901 329.403L966.563 340.876L967.489 340.5ZM962.827 329.026V328.026H943.604V329.026V330.026H962.827V329.026ZM943.604 329.026L942.677 328.65L938.015 340.124L938.942 340.5L939.868 340.876L944.53 329.403L943.604 329.026ZM938.942 340.5V339.5H931.827V340.5V341.5H938.942V340.5ZM953.231 304.838L952.301 304.469L945.157 322.451L946.086 322.82L947.015 323.19L954.16 305.207L953.231 304.838ZM946.086 322.82V323.82H960.345V322.82V321.82H946.086V322.82ZM960.345 322.82L961.275 322.452L954.161 304.47L953.231 304.838L952.301 305.206L959.415 323.188L960.345 322.82ZM982.081 340.5H981.081V341.5H982.081V340.5ZM982.081 297.088V296.088H981.081V297.088H982.081ZM1010.36 300.933L1011.06 300.217L1011.05 300.209L1010.36 300.933ZM1011.23 319.066L1010.52 318.372L1010.51 318.378L1010.5 318.384L1011.23 319.066ZM1006.51 322.76L1006.14 321.831L1006.12 321.839L1006.1 321.847L1006.51 322.76ZM1005.63 323.153L1005.22 322.241L1004.22 322.692L1004.77 323.65L1005.63 323.153ZM1015.56 340.5V341.5H1017.29L1016.43 340.003L1015.56 340.5ZM1008.12 340.5L1007.24 340.985L1007.53 341.5H1008.12V340.5ZM998.822 323.759L999.697 323.273L999.411 322.759H998.822V323.759ZM988.893 323.759V322.759H987.893V323.759H988.893ZM988.893 340.5V341.5H989.893V340.5H988.893ZM988.893 303.294V302.294H987.893V303.294H988.893ZM988.893 317.553H987.893V318.553H988.893V317.553ZM982.081 340.5H983.081V297.088H982.081H981.081V340.5H982.081ZM982.081 297.088V298.088H1000.37V297.088V296.088H982.081V297.088ZM1000.37 297.088V298.088C1004.12 298.088 1007.2 299.303 1009.67 301.656L1010.36 300.933L1011.05 300.209C1008.18 297.477 1004.6 296.088 1000.37 296.088V297.088ZM1010.36 300.933L1009.66 301.648C1012.1 304.03 1013.32 306.95 1013.32 310.438H1014.32H1015.32C1015.32 306.419 1013.88 302.982 1011.06 300.217L1010.36 300.933ZM1014.32 310.438H1013.32C1013.32 312.109 1013.04 313.65 1012.48 315.069L1013.41 315.434L1014.35 315.799C1015 314.13 1015.32 312.34 1015.32 310.438H1014.32ZM1013.41 315.434L1012.48 315.069C1011.91 316.531 1011.24 317.616 1010.52 318.372L1011.23 319.066L1011.95 319.761C1012.92 318.761 1013.71 317.424 1014.35 315.799L1013.41 315.434ZM1011.23 319.066L1010.5 318.384C1009.69 319.251 1008.89 319.973 1008.07 320.611L1008.69 321.397L1009.31 322.184C1010.19 321.49 1011.08 320.698 1011.97 319.749L1011.23 319.066ZM1008.69 321.397L1008.07 320.611C1007.26 321.251 1006.62 321.64 1006.14 321.831L1006.51 322.76L1006.88 323.688C1007.62 323.395 1008.43 322.876 1009.31 322.184L1008.69 321.397ZM1006.51 322.76L1006.1 321.847L1005.22 322.241L1005.63 323.153L1006.04 324.066L1006.92 323.672L1006.51 322.76ZM1005.63 323.153L1004.77 323.65L1014.7 340.997L1015.56 340.5L1016.43 340.003L1006.5 322.657L1005.63 323.153ZM1015.56 340.5V339.5H1008.12V340.5V341.5H1015.56V340.5ZM1008.12 340.5L1008.99 340.015L999.697 323.273L998.822 323.759L997.948 324.244L1007.24 340.985L1008.12 340.5ZM998.822 323.759V322.759H988.893V323.759V324.759H998.822V323.759ZM988.893 323.759H987.893V340.5H988.893H989.893V323.759H988.893ZM988.893 340.5V339.5H982.081V340.5V341.5H988.893V340.5ZM1007.48 310.438H1008.48C1008.48 308.155 1007.69 306.202 1006.13 304.645L1005.42 305.353L1004.71 306.06C1005.88 307.228 1006.48 308.665 1006.48 310.438H1007.48ZM1005.42 305.353L1006.13 304.645C1004.57 303.09 1002.62 302.294 1000.37 302.294V303.294V304.294C1002.11 304.294 1003.55 304.89 1004.71 306.06L1005.42 305.353ZM1000.37 303.294V302.294H988.893V303.294V304.294H1000.37V303.294ZM988.893 303.294H987.893V317.553H988.893H989.893V303.294H988.893ZM988.893 317.553V318.553H1000.37V317.553V316.553H988.893V317.553ZM1000.37 317.553V318.553C1002.61 318.553 1004.57 317.794 1006.13 316.232L1005.42 315.524L1004.71 314.817C1003.55 315.979 1002.12 316.553 1000.37 316.553V317.553ZM1005.42 315.524L1006.13 316.232C1007.69 314.675 1008.48 312.722 1008.48 310.438H1007.48H1006.48C1006.48 312.211 1005.88 313.649 1004.71 314.817L1005.42 315.524ZM1032.3 297.088H1033.3V296.088H1032.3V297.088ZM1032.3 318.188H1031.3V320.741L1033.04 318.868L1032.3 318.188ZM1051.83 297.088V296.088H1051.39L1051.1 296.409L1051.83 297.088ZM1060.52 297.088L1061.25 297.769L1062.82 296.088H1060.52V297.088ZM1043.78 315.07L1043.05 314.389L1042.49 314.984L1042.96 315.648L1043.78 315.07ZM1061.76 340.5V341.5H1063.69L1062.58 339.923L1061.76 340.5ZM1053.38 340.5L1052.55 341.072L1052.85 341.5H1053.38V340.5ZM1039.12 320.035L1039.94 319.463L1039.22 318.438L1038.38 319.36L1039.12 320.035ZM1032.3 327.482L1031.57 326.808L1031.3 327.094V327.482H1032.3ZM1032.3 340.5V341.5H1033.3V340.5H1032.3ZM1025.49 340.5H1024.49V341.5H1025.49V340.5ZM1025.49 297.088V296.088H1024.49V297.088H1025.49ZM1032.3 297.088H1031.3V318.188H1032.3H1033.3V297.088H1032.3ZM1032.3 318.188L1033.04 318.868L1052.57 297.767L1051.83 297.088L1051.1 296.409L1031.57 317.509L1032.3 318.188ZM1051.83 297.088V298.088H1060.52V297.088V296.088H1051.83V297.088ZM1060.52 297.088L1059.79 296.406L1043.05 314.389L1043.78 315.07L1044.51 315.752L1061.25 297.769L1060.52 297.088ZM1043.78 315.07L1042.96 315.648L1060.94 341.077L1061.76 340.5L1062.58 339.923L1044.59 314.493L1043.78 315.07ZM1061.76 340.5V339.5H1053.38V340.5V341.5H1061.76V340.5ZM1053.38 340.5L1054.2 339.928L1039.94 319.463L1039.12 320.035L1038.3 320.607L1052.55 341.072L1053.38 340.5ZM1039.12 320.035L1038.38 319.36L1031.57 326.808L1032.3 327.482L1033.04 328.157L1039.85 320.71L1039.12 320.035ZM1032.3 327.482H1031.3V340.5H1032.3H1033.3V327.482H1032.3ZM1032.3 340.5V339.5H1025.49V340.5V341.5H1032.3V340.5ZM1025.49 340.5H1026.49V297.088H1025.49H1024.49V340.5H1025.49ZM1025.49 297.088V298.088H1032.3V297.088V296.088H1025.49V297.088ZM1068.6 340.5H1067.6V341.5H1068.6V340.5ZM1068.6 297.088V296.088H1067.6V297.088H1068.6ZM1075.41 297.088H1076.41V296.088H1075.41V297.088ZM1075.41 340.5V341.5H1076.41V340.5H1075.41ZM1068.6 340.5H1069.6V297.088H1068.6H1067.6V340.5H1068.6ZM1068.6 297.088V298.088H1075.41V297.088V296.088H1068.6V297.088ZM1075.41 297.088H1074.41V340.5H1075.41H1076.41V297.088H1075.41ZM1075.41 340.5V339.5H1068.6V340.5V341.5H1075.41V340.5ZM1117.86 297.088V296.088H1116.86V297.088H1117.86ZM1124.67 297.088H1125.67V296.088H1124.67V297.088ZM1124.67 340.5V341.5H1125.67V340.5H1124.67ZM1118.8 340.5L1118 341.111L1118.31 341.5H1118.8V340.5ZM1094.61 309.197L1095.4 308.586L1093.61 306.268V309.197H1094.61ZM1094.61 340.5V341.5H1095.61V340.5H1094.61ZM1087.8 340.5H1086.8V341.5H1087.8V340.5ZM1087.8 297.088V296.088H1086.8V297.088H1087.8ZM1093.67 297.088L1094.46 296.477L1094.16 296.088H1093.67V297.088ZM1117.86 328.421L1117.07 329.032L1118.86 331.353V328.421H1117.86ZM1117.86 297.088V298.088H1124.67V297.088V296.088H1117.86V297.088ZM1124.67 297.088H1123.67V340.5H1124.67H1125.67V297.088H1124.67ZM1124.67 340.5V339.5H1118.8V340.5V341.5H1124.67V340.5ZM1118.8 340.5L1119.59 339.889L1095.4 308.586L1094.61 309.197L1093.82 309.809L1118 341.111L1118.8 340.5ZM1094.61 309.197H1093.61V340.5H1094.61H1095.61V309.197H1094.61ZM1094.61 340.5V339.5H1087.8V340.5V341.5H1094.61V340.5ZM1087.8 340.5H1088.8V297.088H1087.8H1086.8V340.5H1087.8ZM1087.8 297.088V298.088H1093.67V297.088V296.088H1087.8V297.088ZM1093.67 297.088L1092.88 297.699L1117.07 329.032L1117.86 328.421L1118.65 327.81L1094.46 296.477L1093.67 297.088ZM1117.86 328.421H1118.86V297.088H1117.86H1116.86V328.421H1117.86ZM1160.94 317.553V316.553H1159.94V317.553H1160.94ZM1176.1 317.553H1177.1V316.553H1176.1V317.553ZM1176.1 333.053L1176.92 333.634L1177.1 333.373V333.053H1176.1ZM1141.17 334.627L1141.87 333.913L1141.87 333.912L1141.17 334.627ZM1141.17 302.961L1140.47 302.244L1140.47 302.249L1141.17 302.961ZM1163.84 297.36L1163.57 298.321L1163.57 298.322L1163.84 297.36ZM1168.87 299.449L1169.41 298.606L1169.4 298.601L1169.39 298.597L1168.87 299.449ZM1172.32 301.901L1172.95 301.127L1172.95 301.125L1172.32 301.901ZM1174.5 303.99L1175.29 303.372L1175.28 303.371L1174.5 303.99ZM1175.17 304.838L1175.87 305.543L1176.5 304.915L1175.95 304.22L1175.17 304.838ZM1170.84 309.197L1170.06 309.822L1170.76 310.697L1171.55 309.902L1170.84 309.197ZM1168.72 306.927L1169.4 306.194L1169.4 306.193L1168.72 306.927ZM1166.05 304.959L1165.55 305.824L1165.56 305.831L1166.05 304.959ZM1146.07 307.381L1145.37 306.67L1145.37 306.674L1146.07 307.381ZM1146.07 330.237L1146.78 329.534L1146.78 329.53L1146.07 330.237ZM1165.14 333.416L1164.71 332.515L1164.7 332.522L1165.14 333.416ZM1169.32 330.57L1170.03 331.277L1170.32 330.985V330.57H1169.32ZM1169.32 323.759H1170.32V322.759H1169.32V323.759ZM1160.94 323.759H1159.94V324.759H1160.94V323.759ZM1160.94 317.553V318.553H1176.1V317.553V316.553H1160.94V317.553ZM1176.1 317.553H1175.1V333.053H1176.1H1177.1V317.553H1176.1ZM1176.1 333.053L1175.29 332.471C1175.17 332.644 1174.95 332.915 1174.64 333.255L1175.38 333.931L1176.11 334.606C1176.47 334.219 1176.74 333.885 1176.92 333.634L1176.1 333.053ZM1175.38 333.931L1174.64 333.255C1174.36 333.556 1173.66 334.178 1172.5 335.124L1173.14 335.898L1173.77 336.673C1174.91 335.742 1175.72 335.032 1176.11 334.606L1175.38 333.931ZM1173.14 335.898L1172.5 335.124C1171.41 336.019 1170.22 336.799 1168.95 337.464L1169.41 338.351L1169.88 339.237C1171.27 338.51 1172.57 337.655 1173.77 336.673L1173.14 335.898ZM1169.41 338.351L1168.95 337.464C1167.7 338.115 1166.05 338.728 1163.95 339.292L1164.21 340.258L1164.46 341.224C1166.66 340.637 1168.46 339.978 1169.88 339.237L1169.41 338.351ZM1164.21 340.258L1163.95 339.292C1161.89 339.842 1159.74 340.105 1157.52 340.105V341.105V342.105C1159.9 342.105 1162.22 341.824 1164.46 341.224L1164.21 340.258ZM1157.52 341.105V340.105C1151.28 340.105 1146.09 338.048 1141.87 333.913L1141.17 334.627L1140.47 335.341C1145.09 339.864 1150.79 342.105 1157.52 342.105V341.105ZM1141.17 334.627L1141.87 333.912C1137.67 329.805 1135.57 324.766 1135.57 318.794H1134.57H1133.57C1133.57 325.295 1135.88 330.852 1140.47 335.341L1141.17 334.627ZM1134.57 318.794H1135.57C1135.57 312.824 1137.67 307.813 1141.87 303.673L1141.17 302.961L1140.47 302.249C1135.89 306.767 1133.57 312.291 1133.57 318.794H1134.57ZM1141.17 302.961L1141.87 303.678C1146.09 299.568 1151.29 297.482 1157.52 297.482V296.482V295.482C1150.79 295.482 1145.09 297.756 1140.47 302.244L1141.17 302.961ZM1157.52 296.482V297.482C1159.63 297.482 1161.66 297.772 1163.57 298.321L1163.84 297.36L1164.12 296.399C1162.03 295.798 1159.82 295.482 1157.52 295.482V296.482ZM1163.84 297.36L1163.57 298.322C1165.54 298.88 1167.11 299.544 1168.35 300.302L1168.87 299.449L1169.39 298.597C1167.96 297.719 1166.21 296.991 1164.12 296.398L1163.84 297.36ZM1168.87 299.449L1168.33 300.293C1169.64 301.125 1170.76 301.92 1171.69 302.677L1172.32 301.901L1172.95 301.125C1171.94 300.308 1170.76 299.469 1169.41 298.606L1168.87 299.449ZM1172.32 301.901L1171.69 302.675C1172.66 303.476 1173.33 304.119 1173.71 304.61L1174.5 303.99L1175.28 303.371C1174.76 302.711 1173.97 301.962 1172.95 301.127L1172.32 301.901ZM1174.5 303.99L1173.71 304.608L1174.38 305.456L1175.17 304.838L1175.95 304.22L1175.29 303.372L1174.5 303.99ZM1175.17 304.838L1174.46 304.133L1170.13 308.493L1170.84 309.197L1171.55 309.902L1175.87 305.543L1175.17 304.838ZM1170.84 309.197L1171.62 308.573C1171.57 308.51 1171.51 308.435 1171.42 308.317C1171.34 308.204 1171.23 308.068 1171.1 307.907L1170.32 308.531L1169.54 309.156C1169.65 309.298 1169.75 309.418 1169.83 309.525C1169.9 309.627 1169.98 309.733 1170.06 309.822L1170.84 309.197ZM1170.32 308.531L1171.1 307.907C1170.81 307.536 1170.24 306.973 1169.4 306.194L1168.72 306.927L1168.04 307.66C1168.89 308.455 1169.35 308.921 1169.54 309.156L1170.32 308.531ZM1168.72 306.927L1169.4 306.193C1168.53 305.392 1167.59 304.677 1166.54 304.087L1166.05 304.959L1165.56 305.831C1166.45 306.331 1167.27 306.948 1168.04 307.661L1168.72 306.927ZM1166.05 304.959L1166.56 304.094C1165.53 303.499 1164.21 302.959 1162.66 302.463L1162.36 303.415L1162.05 304.367C1163.53 304.84 1164.7 305.329 1165.55 305.824L1166.05 304.959ZM1162.36 303.415L1162.66 302.463C1161.04 301.944 1159.31 301.688 1157.52 301.688V302.688V303.688C1159.12 303.688 1160.65 303.917 1162.05 304.367L1162.36 303.415ZM1157.52 302.688V301.688C1152.77 301.688 1148.71 303.366 1145.37 306.67L1146.07 307.381L1146.78 308.091C1149.74 305.159 1153.3 303.688 1157.52 303.688V302.688ZM1146.07 307.381L1145.37 306.674C1142.06 309.982 1140.38 314.052 1140.38 318.794H1141.38H1142.38C1142.38 314.575 1143.85 311.016 1146.78 308.088L1146.07 307.381ZM1141.38 318.794H1140.38C1140.38 323.566 1142.06 327.636 1145.37 330.944L1146.07 330.237L1146.78 329.53C1143.85 326.603 1142.38 323.044 1142.38 318.794H1141.38ZM1146.07 330.237L1145.36 330.941C1148.68 334.286 1152.75 335.93 1157.52 335.93V334.93V333.93C1153.26 333.93 1149.71 332.485 1146.78 329.534L1146.07 330.237ZM1157.52 334.93V335.93C1159.08 335.93 1160.58 335.805 1162.03 335.482L1161.81 334.506L1161.6 333.53C1160.32 333.813 1158.98 333.93 1157.52 333.93V334.93ZM1161.81 334.506L1162.03 335.482C1163.44 335.17 1164.64 334.785 1165.59 334.31L1165.14 333.416L1164.7 332.522C1163.95 332.895 1162.92 333.236 1161.6 333.53L1161.81 334.506ZM1165.14 333.416L1165.58 334.317C1166.51 333.869 1167.3 333.392 1167.98 332.958L1167.45 332.114L1166.91 331.271C1166.26 331.684 1165.54 332.115 1164.71 332.515L1165.14 333.416ZM1167.45 332.114L1167.98 332.958C1168.69 332.508 1169.21 332.101 1169.58 331.732L1168.87 331.024L1168.16 330.317C1167.93 330.553 1167.53 330.873 1166.91 331.271L1167.45 332.114ZM1168.87 331.024L1169.58 331.732L1170.03 331.277L1169.32 330.57L1168.62 329.863L1168.16 330.317L1168.87 331.024ZM1169.32 330.57H1170.32V323.759H1169.32H1168.32V330.57H1169.32ZM1169.32 323.759V322.759H1160.94V323.759V324.759H1169.32V323.759ZM1160.94 323.759H1161.94V317.553H1160.94H1159.94V323.759H1160.94Z" fill="#1E1951"/>
    </g>
  </g>
</svg>
