<svg width="1207" height="343" viewBox="0 0 1207 343" fill="none" xmlns="http://www.w3.org/2000/svg">
<path d="M184.811 170.928C184.811 187.152 190.365 200.872 201.58 212.087C212.795 223.412 226.515 228.965 242.739 228.965C258.963 228.965 272.683 223.412 283.898 212.087C295.114 200.872 300.776 187.152 300.776 170.928C300.776 154.813 295.114 141.093 283.898 129.878C272.683 118.663 258.963 113 242.739 113C226.515 113 212.795 118.663 201.58 129.878C190.365 141.093 184.811 154.813 184.811 170.928ZM160.312 170.928C160.312 148.498 168.152 129.551 184.049 113.98C199.838 98.5186 219.437 90.6787 242.739 90.6787C266.041 90.6787 285.641 98.5186 301.429 113.98C317.327 129.551 325.166 148.498 325.166 170.928C325.166 193.359 317.327 212.414 301.429 227.876C285.641 243.447 266.041 251.178 242.739 251.178C219.437 251.178 199.838 243.447 184.049 227.876C168.152 212.414 160.312 193.359 160.312 170.928ZM361.099 92.8564L423.491 92.9653C438.3 92.9653 450.822 97.7563 460.839 107.556C470.857 117.356 475.974 129.225 475.974 143.162C475.974 157.1 470.857 168.968 460.839 178.659C450.822 188.459 438.3 193.25 423.491 193.25H385.599V249H361.099V92.8564ZM423.491 115.287L385.599 115.178V170.928H423.491C431.113 170.928 437.755 168.315 443.2 162.979C448.644 157.644 451.366 151.002 451.366 143.162C451.366 135.322 448.644 128.68 443.2 123.345C437.755 117.9 431.113 115.287 423.491 115.287ZM493.723 92.8564H611.865V115.178H565.044V249H540.544V115.178H493.723V92.8564ZM638.76 249V92.8564H663.26V249H638.76ZM789.133 168.75L849.347 92.8564H870.58V249H846.08V135.322L789.133 206.643L732.294 135.322V249H707.794V92.8564H728.918L789.133 168.75ZM978.596 228.965C989.702 228.965 999.393 224.827 1007.56 216.443C1015.73 208.167 1019.86 198.15 1019.86 186.608V92.8564H1044.47V186.608C1044.47 204.465 1038.05 219.709 1025.2 232.34C1012.35 244.971 996.889 251.178 978.596 251.178C960.303 251.178 944.841 244.862 931.992 232.231C919.143 219.601 912.828 204.465 912.828 186.608V92.8564H937.436V186.608C937.436 198.259 941.465 208.276 949.632 216.552C957.798 224.827 967.489 228.965 978.596 228.965ZM1160.33 204.356C1160.33 199.565 1158.8 195.646 1155.75 192.379C1152.71 189.112 1148.68 186.608 1143.89 184.757C1139.09 182.906 1133.76 181.272 1127.88 179.748C1122 178.224 1116.12 176.373 1110.24 174.195C1104.36 172.017 1098.92 169.404 1094.12 166.355C1089.33 163.306 1085.41 159.06 1082.36 153.397C1079.32 147.735 1077.79 140.984 1077.79 133.036C1077.79 121.058 1082.36 110.932 1091.62 102.874C1100.77 94.8164 1113.29 90.6787 1129.08 90.6787C1134.85 90.6787 1140.4 91.4409 1145.74 92.8564C1151.07 94.272 1155.54 95.9053 1159.02 97.8652C1162.51 99.8252 1165.66 101.676 1168.28 103.636C1170.89 105.596 1172.85 107.229 1174.16 108.536L1175.9 110.714L1160.33 126.394C1160 126.176 1159.57 125.631 1159.02 124.978C1158.48 124.325 1157.28 123.236 1155.32 121.711C1153.36 120.187 1151.29 118.88 1149.11 117.683C1146.93 116.485 1143.99 115.396 1140.4 114.416C1136.81 113.545 1133 113 1129.08 113C1121.02 113 1114.49 115.069 1109.59 118.989C1104.69 123.018 1102.29 127.7 1102.29 133.036C1102.29 137.827 1103.82 141.855 1106.86 145.122C1109.91 148.389 1113.83 151.002 1118.62 152.853C1123.41 154.704 1128.86 156.337 1134.74 157.862C1140.62 159.386 1146.5 161.128 1152.38 163.306C1158.26 165.484 1163.59 168.097 1168.39 171.146C1173.18 174.195 1177.2 178.55 1180.25 184.212C1183.3 189.875 1184.83 196.625 1184.83 204.465C1184.83 218.185 1179.82 229.509 1170.02 238.22C1160.11 246.931 1146.5 251.287 1129.08 251.287C1121.89 251.287 1115.14 250.416 1108.72 248.673C1102.29 246.931 1097.06 244.971 1092.93 242.576C1088.79 240.18 1085.2 237.785 1082.15 235.389C1079.1 232.994 1076.81 231.034 1075.5 229.4L1073.33 226.678L1088.9 211.107C1089.12 211.543 1089.66 212.196 1090.31 213.067C1090.97 213.938 1092.6 215.354 1095 217.423C1097.39 219.492 1100.11 221.343 1102.94 222.867C1105.78 224.392 1109.48 225.807 1114.16 227.114C1118.84 228.42 1123.85 228.965 1129.08 228.965C1138.66 228.965 1146.28 226.678 1151.94 221.887C1157.5 217.205 1160.33 211.325 1160.33 204.356Z" fill="#1E1951"/>
<path d="M201.58 212.087L206.909 206.81L206.896 206.797L206.883 206.784L201.58 212.087ZM283.898 212.087L278.595 206.784L278.582 206.797L278.569 206.81L283.898 212.087ZM184.049 113.98L178.802 108.622L178.801 108.622L184.049 113.98ZM301.429 113.98L306.677 108.622L306.677 108.622L301.429 113.98ZM301.429 227.876L296.2 222.5L296.181 222.518L296.163 222.536L301.429 227.876ZM184.049 227.876L189.316 222.536L189.297 222.518L189.278 222.5L184.049 227.876ZM184.811 170.928H177.311C177.311 189.072 183.606 204.72 196.277 217.391L201.58 212.087L206.883 206.784C197.123 197.024 192.311 185.233 192.311 170.928H184.811ZM201.58 212.087L196.251 217.365C208.929 230.166 224.591 236.465 242.739 236.465V228.965V221.465C228.439 221.465 216.662 216.658 206.909 206.81L201.58 212.087ZM242.739 228.965V236.465C260.887 236.465 276.55 230.166 289.227 217.365L283.898 212.087L278.569 206.81C268.816 216.658 257.039 221.465 242.739 221.465V228.965ZM283.898 212.087L289.202 217.391C301.846 204.746 308.276 189.109 308.276 170.928H300.776H293.276C293.276 185.196 288.381 196.998 278.595 206.784L283.898 212.087ZM300.776 170.928H308.276C308.276 152.849 301.841 137.214 289.202 124.575L283.898 129.878L278.595 135.181C288.386 144.973 293.276 156.777 293.276 170.928H300.776ZM283.898 129.878L289.202 124.575C276.557 111.93 260.92 105.5 242.739 105.5V113V120.5C257.007 120.5 268.809 125.395 278.595 135.181L283.898 129.878ZM242.739 113V105.5C224.558 105.5 208.921 111.93 196.277 124.575L201.58 129.878L206.883 135.181C216.669 125.395 228.472 120.5 242.739 120.5V113ZM201.58 129.878L196.277 124.575C183.611 137.24 177.311 152.886 177.311 170.928H184.811H192.311C192.311 156.74 197.118 144.947 206.883 135.181L201.58 129.878ZM160.312 170.928H167.812C167.812 150.474 174.868 133.471 189.297 119.339L184.049 113.98L178.801 108.622C161.436 125.631 152.812 146.521 152.812 170.928H160.312ZM184.049 113.98L189.297 119.339C203.616 105.316 221.302 98.1787 242.739 98.1787V90.6787V83.1787C217.572 83.1787 196.06 91.7209 178.802 108.622L184.049 113.98ZM242.739 90.6787V98.1787C264.176 98.1787 281.863 105.316 296.182 119.339L301.429 113.98L306.677 108.622C289.419 91.7209 267.906 83.1787 242.739 83.1787V90.6787ZM301.429 113.98L296.181 119.339C310.61 133.471 317.666 150.474 317.666 170.928H325.166H332.666C332.666 146.521 324.043 125.631 306.677 108.622L301.429 113.98ZM325.166 170.928H317.666C317.666 191.398 310.6 208.494 296.2 222.5L301.429 227.876L306.658 233.252C324.053 216.334 332.666 195.32 332.666 170.928H325.166ZM301.429 227.876L296.163 222.536C281.867 236.634 264.2 243.678 242.739 243.678V251.178V258.678C267.882 258.678 289.414 250.259 306.695 233.216L301.429 227.876ZM242.739 251.178V243.678C221.279 243.678 203.611 236.634 189.316 222.536L184.049 227.876L178.783 233.216C196.065 250.259 217.596 258.678 242.739 258.678V251.178ZM184.049 227.876L189.278 222.5C174.878 208.494 167.812 191.398 167.812 170.928H160.312H152.812C152.812 195.32 161.425 216.334 178.82 233.252L184.049 227.876ZM361.099 92.8564L361.112 85.3565L353.599 85.3433V92.8564H361.099ZM423.491 92.9653L423.478 100.465H423.491V92.9653ZM460.839 178.659L455.625 173.269L455.609 173.283L455.595 173.298L460.839 178.659ZM385.599 193.25V185.75H378.099V193.25H385.599ZM385.599 249V256.5H393.099V249H385.599ZM361.099 249H353.599V256.5H361.099V249ZM423.491 115.287L423.47 122.787L423.48 122.787H423.491V115.287ZM385.599 115.178L385.62 107.678L378.099 107.657V115.178H385.599ZM385.599 170.928H378.099V178.428H385.599V170.928ZM443.2 123.345L437.896 128.648L437.923 128.675L437.95 128.701L443.2 123.345ZM361.099 92.8564L361.086 100.356L423.478 100.465L423.491 92.9653L423.504 85.4653L361.112 85.3565L361.099 92.8564ZM423.491 92.9653V100.465C436.521 100.465 447.103 104.611 455.595 112.917L460.839 107.556L466.084 102.195C454.54 90.9018 440.078 85.4653 423.491 85.4653V92.9653ZM460.839 107.556L455.595 112.917C464.209 121.345 468.474 131.297 468.474 143.162H475.974H483.474C483.474 127.153 477.505 113.367 466.084 102.195L460.839 107.556ZM475.974 143.162H468.474C468.474 155.034 464.206 164.967 455.625 173.269L460.839 178.659L466.054 184.05C477.508 172.969 483.474 159.165 483.474 143.162H475.974ZM460.839 178.659L455.595 173.298C447.103 181.604 436.521 185.75 423.491 185.75V193.25V200.75C440.078 200.75 454.54 195.314 466.084 184.02L460.839 178.659ZM423.491 193.25V185.75H385.599V193.25V200.75H423.491V193.25ZM385.599 193.25H378.099V249H385.599H393.099V193.25H385.599ZM385.599 249V241.5H361.099V249V256.5H385.599V249ZM361.099 249H368.599V92.8564H361.099H353.599V249H361.099ZM423.491 115.287L423.513 107.787L385.62 107.678L385.599 115.178L385.577 122.678L423.47 122.787L423.491 115.287ZM385.599 115.178H378.099V170.928H385.599H393.099V115.178H385.599ZM385.599 170.928V178.428H423.491V170.928V163.428H385.599V170.928ZM423.491 170.928V178.428C433.006 178.428 441.554 175.094 448.449 168.336L443.2 162.979L437.95 157.623C433.957 161.536 429.22 163.428 423.491 163.428V170.928ZM443.2 162.979L448.449 168.336C455.389 161.535 458.866 152.937 458.866 143.162H451.366H443.866C443.866 149.067 441.899 153.753 437.95 157.623L443.2 162.979ZM451.366 143.162H458.866C458.866 133.387 455.389 124.79 448.449 117.988L443.2 123.345L437.95 128.701C441.899 132.571 443.866 137.257 443.866 143.162H451.366ZM443.2 123.345L448.503 118.041C441.592 111.13 433.016 107.787 423.491 107.787V115.287V122.787C429.211 122.787 433.919 124.67 437.896 128.648L443.2 123.345ZM493.723 92.8564V85.3564H486.223V92.8564H493.723ZM611.865 92.8564H619.365V85.3564H611.865V92.8564ZM611.865 115.178V122.678H619.365V115.178H611.865ZM565.044 115.178V107.678H557.544V115.178H565.044ZM565.044 249V256.5H572.544V249H565.044ZM540.544 249H533.044V256.5H540.544V249ZM540.544 115.178H548.044V107.678H540.544V115.178ZM493.723 115.178H486.223V122.678H493.723V115.178ZM493.723 92.8564V100.356H611.865V92.8564V85.3564H493.723V92.8564ZM611.865 92.8564H604.365V115.178H611.865H619.365V92.8564H611.865ZM611.865 115.178V107.678H565.044V115.178V122.678H611.865V115.178ZM565.044 115.178H557.544V249H565.044H572.544V115.178H565.044ZM565.044 249V241.5H540.544V249V256.5H565.044V249ZM540.544 249H548.044V115.178H540.544H533.044V249H540.544ZM540.544 115.178V107.678H493.723V115.178V122.678H540.544V115.178ZM493.723 115.178H501.223V92.8564H493.723H486.223V115.178H493.723ZM638.76 249H631.26V256.5H638.76V249ZM638.76 92.8564V85.3564H631.26V92.8564H638.76ZM663.26 92.8564H670.76V85.3564H663.26V92.8564ZM663.26 249V256.5H670.76V249H663.26ZM638.76 249H646.26V92.8564H638.76H631.26V249H638.76ZM638.76 92.8564V100.356H663.26V92.8564V85.3564H638.76V92.8564ZM663.26 92.8564H655.76V249H663.26H670.76V92.8564H663.26ZM663.26 249V241.5H638.76V249V256.5H663.26V249ZM789.133 168.75L783.257 173.412L789.133 180.817L795.008 173.412L789.133 168.75ZM849.347 92.8564V85.3564H845.724L843.472 88.1949L849.347 92.8564ZM870.58 92.8564H878.08V85.3564H870.58V92.8564ZM870.58 249V256.5H878.08V249H870.58ZM846.08 249H838.58V256.5H846.08V249ZM846.08 135.322H853.58V113.909L840.22 130.643L846.08 135.322ZM789.133 206.643L783.267 211.317L789.127 218.67L794.994 211.323L789.133 206.643ZM732.294 135.322L738.159 130.648L724.794 113.877V135.322H732.294ZM732.294 249V256.5H739.794V249H732.294ZM707.794 249H700.294V256.5H707.794V249ZM707.794 92.8564V85.3564H700.294V92.8564H707.794ZM728.918 92.8564L734.794 88.1949L732.542 85.3564H728.918V92.8564ZM789.133 168.75L795.008 173.412L855.222 97.518L849.347 92.8564L843.472 88.1949L783.257 164.089L789.133 168.75ZM849.347 92.8564V100.356H870.58V92.8564V85.3564H849.347V92.8564ZM870.58 92.8564H863.08V249H870.58H878.08V92.8564H870.58ZM870.58 249V241.5H846.08V249V256.5H870.58V249ZM846.08 249H853.58V135.322H846.08H838.58V249H846.08ZM846.08 135.322L840.22 130.643L783.272 201.963L789.133 206.643L794.994 211.323L851.941 140.002L846.08 135.322ZM789.133 206.643L794.998 201.969L738.159 130.648L732.294 135.322L726.429 139.997L783.267 211.317L789.133 206.643ZM732.294 135.322H724.794V249H732.294H739.794V135.322H732.294ZM732.294 249V241.5H707.794V249V256.5H732.294V249ZM707.794 249H715.294V92.8564H707.794H700.294V249H707.794ZM707.794 92.8564V100.356H728.918V92.8564V85.3564H707.794V92.8564ZM728.918 92.8564L723.043 97.518L783.257 173.412L789.133 168.75L795.008 164.089L734.794 88.1949L728.918 92.8564ZM1007.56 216.443L1002.22 211.175L1002.2 211.192L1002.19 211.21L1007.56 216.443ZM1019.86 92.8564V85.3564H1012.36V92.8564H1019.86ZM1044.47 92.8564H1051.97V85.3564H1044.47V92.8564ZM912.828 92.8564V85.3564H905.328V92.8564H912.828ZM937.436 92.8564H944.936V85.3564H937.436V92.8564ZM978.596 228.965V236.465C991.808 236.465 1003.41 231.45 1012.93 221.676L1007.56 216.443L1002.19 211.21C995.374 218.205 987.596 221.465 978.596 221.465V228.965ZM1007.56 216.443L1012.9 221.711C1022.43 212.047 1027.36 200.142 1027.36 186.608H1019.86H1012.36C1012.36 196.157 1009.02 204.288 1002.22 211.175L1007.56 216.443ZM1019.86 186.608H1027.36V92.8564H1019.86H1012.36V186.608H1019.86ZM1019.86 92.8564V100.356H1044.47V92.8564V85.3564H1019.86V92.8564ZM1044.47 92.8564H1036.97V186.608H1044.47H1051.97V92.8564H1044.47ZM1044.47 186.608H1036.97C1036.97 202.434 1031.37 215.757 1019.94 226.992L1025.2 232.34L1030.46 237.689C1044.73 223.662 1051.97 206.497 1051.97 186.608H1044.47ZM1025.2 232.34L1019.94 226.992C1008.53 238.207 994.975 243.678 978.596 243.678V251.178V258.678C998.802 258.678 1016.17 251.735 1030.46 237.689L1025.2 232.34ZM978.596 251.178V243.678C962.249 243.678 948.681 238.121 937.25 226.883L931.992 232.231L926.734 237.58C941 251.604 958.356 258.678 978.596 258.678V251.178ZM931.992 232.231L937.25 226.883C925.835 215.661 920.328 202.453 920.328 186.608H912.828H905.328C905.328 206.478 912.452 223.54 926.734 237.58L931.992 232.231ZM912.828 186.608H920.328V92.8564H912.828H905.328V186.608H912.828ZM912.828 92.8564V100.356H937.436V92.8564V85.3564H912.828V92.8564ZM937.436 92.8564H929.936V186.608H937.436H944.936V92.8564H937.436ZM937.436 186.608H929.936C929.936 200.19 934.714 212.112 944.293 221.82L949.632 216.552L954.97 211.284C948.217 204.44 944.936 196.327 944.936 186.608H937.436ZM949.632 216.552L944.293 221.82C953.803 231.457 965.391 236.465 978.596 236.465V228.965V221.465C969.587 221.465 961.793 218.198 954.97 211.284L949.632 216.552ZM1091.62 102.874L1096.54 108.531L1096.56 108.516L1096.58 108.502L1091.62 102.874ZM1174.16 108.536L1180.01 103.851L1179.75 103.527L1179.46 103.233L1174.16 108.536ZM1175.9 110.714L1181.22 115.999L1185.93 111.252L1181.75 106.029L1175.9 110.714ZM1160.33 126.394L1156.17 132.634L1161.3 136.057L1165.65 131.678L1160.33 126.394ZM1140.4 114.416L1142.37 107.18L1142.27 107.152L1142.17 107.127L1140.4 114.416ZM1109.59 118.989L1104.9 113.133L1104.86 113.164L1104.82 113.196L1109.59 118.989ZM1170.02 238.22L1174.97 243.853L1174.99 243.839L1175 243.826L1170.02 238.22ZM1073.33 226.678L1068.02 221.375L1063.28 226.122L1067.47 231.363L1073.33 226.678ZM1088.9 211.107L1095.61 207.753L1090.95 198.446L1083.59 205.804L1088.9 211.107ZM1151.94 221.887L1147.11 216.153L1147.1 216.162L1151.94 221.887ZM1160.33 204.356H1167.83C1167.83 197.766 1165.65 191.988 1161.24 187.262L1155.75 192.379L1150.27 197.496C1151.96 199.303 1152.83 201.365 1152.83 204.356H1160.33ZM1155.75 192.379L1161.24 187.262C1157.24 182.976 1152.16 179.914 1146.59 177.761L1143.89 184.757L1141.18 191.753C1145.19 193.302 1148.17 195.249 1150.27 197.496L1155.75 192.379ZM1143.89 184.757L1146.59 177.761C1141.45 175.775 1135.82 174.059 1129.76 172.488L1127.88 179.748L1126 187.008C1131.7 188.486 1136.74 190.037 1141.18 191.753L1143.89 184.757ZM1127.88 179.748L1129.76 172.488C1124.13 171.029 1118.5 169.255 1112.84 167.162L1110.24 174.195L1107.63 181.228C1113.74 183.491 1119.86 185.418 1126 187.008L1127.88 179.748ZM1110.24 174.195L1112.84 167.162C1107.37 165.134 1102.42 162.744 1098.15 160.028L1094.12 166.355L1090.1 172.682C1095.41 176.064 1101.35 178.9 1107.63 181.228L1110.24 174.195ZM1094.12 166.355L1098.15 160.028C1094.53 157.721 1091.46 154.467 1088.97 149.842L1082.36 153.397L1075.76 156.953C1079.37 163.652 1084.14 168.891 1090.1 172.682L1094.12 166.355ZM1082.36 153.397L1088.97 149.842C1086.63 145.494 1085.29 140.022 1085.29 133.036H1077.79H1070.29C1070.29 141.946 1072 149.976 1075.76 156.953L1082.36 153.397ZM1077.79 133.036H1085.29C1085.29 123.241 1088.92 115.173 1096.54 108.531L1091.62 102.874L1086.7 97.2173C1075.81 106.691 1070.29 118.875 1070.29 133.036H1077.79ZM1091.62 102.874L1096.58 108.502C1104.01 101.951 1114.6 98.1787 1129.08 98.1787V90.6787V83.1787C1111.98 83.1787 1097.52 87.6817 1086.66 97.2463L1091.62 102.874ZM1129.08 90.6787V98.1787C1134.18 98.1787 1139.09 98.8516 1143.81 100.106L1145.74 92.8564L1147.66 85.6072C1141.72 84.0302 1135.52 83.1787 1129.08 83.1787V90.6787ZM1145.74 92.8564L1143.81 100.106C1148.84 101.438 1152.63 102.875 1155.34 104.402L1159.02 97.8652L1162.7 91.3284C1158.44 88.9357 1153.31 87.1056 1147.66 85.6072L1145.74 92.8564ZM1159.02 97.8652L1155.34 104.402C1158.83 106.363 1161.6 108.003 1163.78 109.636L1168.28 103.636L1172.78 97.6362C1169.73 95.3496 1166.18 93.2873 1162.7 91.3284L1159.02 97.8652ZM1168.28 103.636L1163.78 109.636C1166.29 111.518 1167.92 112.904 1168.85 113.839L1174.16 108.536L1179.46 103.233C1177.78 101.555 1175.49 99.6741 1172.78 97.6362L1168.28 103.636ZM1174.16 108.536L1168.3 113.221L1170.04 115.399L1175.9 110.714L1181.75 106.029L1180.01 103.851L1174.16 108.536ZM1175.9 110.714L1170.58 105.429L1155.01 121.109L1160.33 126.394L1165.65 131.678L1181.22 115.999L1175.9 110.714ZM1160.33 126.394L1164.49 120.153C1164.72 120.308 1164.9 120.448 1165.01 120.544C1165.13 120.643 1165.22 120.724 1165.27 120.774C1165.32 120.824 1165.35 120.859 1165.37 120.871C1165.38 120.884 1165.38 120.884 1165.36 120.866C1165.33 120.826 1165.27 120.756 1165.16 120.63C1165.11 120.569 1165.05 120.503 1164.99 120.425C1164.93 120.351 1164.86 120.264 1164.78 120.177L1159.02 124.978L1153.26 129.779C1153.46 130.017 1153.83 130.469 1154.15 130.832C1154.38 131.094 1155.13 131.94 1156.17 132.634L1160.33 126.394ZM1159.02 124.978L1164.78 120.177C1163.68 118.849 1161.91 117.337 1159.92 115.791L1155.32 121.711L1150.71 127.632C1151.6 128.323 1152.26 128.87 1152.72 129.277C1153.22 129.723 1153.34 129.872 1153.26 129.779L1159.02 124.978ZM1155.32 121.711L1159.92 115.791C1157.58 113.97 1155.16 112.452 1152.73 111.111L1149.11 117.683L1145.5 124.254C1147.42 125.309 1149.14 126.404 1150.71 127.632L1155.32 121.711ZM1149.11 117.683L1152.73 111.111C1149.82 109.512 1146.25 108.237 1142.37 107.18L1140.4 114.416L1138.43 121.652C1141.74 122.555 1144.05 123.457 1145.5 124.254L1149.11 117.683ZM1140.4 114.416L1142.17 107.127C1138.1 106.14 1133.69 105.5 1129.08 105.5V113V120.5C1132.31 120.5 1135.52 120.95 1138.63 121.705L1140.4 114.416ZM1129.08 113V105.5C1119.73 105.5 1111.42 107.916 1104.9 113.133L1109.59 118.989L1114.27 124.846C1117.55 122.222 1122.31 120.5 1129.08 120.5V113ZM1109.59 118.989L1104.82 113.196C1098.51 118.386 1094.79 125.072 1094.79 133.036H1102.29H1109.79C1109.79 130.328 1110.86 127.65 1114.35 124.782L1109.59 118.989ZM1102.29 133.036H1094.79C1094.79 139.576 1096.94 145.478 1101.38 150.239L1106.86 145.122L1112.35 140.005C1110.69 138.233 1109.79 136.077 1109.79 133.036H1102.29ZM1106.86 145.122L1101.38 150.239C1105.28 154.415 1110.18 157.632 1115.92 159.849L1118.62 152.853L1121.33 145.857C1117.48 144.372 1114.55 142.362 1112.35 140.005L1106.86 145.122ZM1118.62 152.853L1115.92 159.849C1121.08 161.844 1126.83 163.56 1132.86 165.122L1134.74 157.862L1136.62 150.602C1130.89 149.115 1125.75 147.565 1121.33 145.857L1118.62 152.853ZM1134.74 157.862L1132.86 165.122C1138.57 166.603 1144.2 168.274 1149.77 170.339L1152.38 163.306L1154.98 156.273C1148.8 153.983 1142.67 152.169 1136.62 150.602L1134.74 157.862ZM1152.38 163.306L1149.77 170.339C1155.21 172.352 1160.06 174.737 1164.36 177.473L1168.39 171.146L1172.41 164.819C1167.13 161.457 1161.31 158.616 1154.98 156.273L1152.38 163.306ZM1168.39 171.146L1164.36 177.473C1167.99 179.783 1171.16 183.149 1173.65 187.768L1180.25 184.212L1186.86 180.657C1183.25 173.952 1178.36 168.607 1172.41 164.819L1168.39 171.146ZM1180.25 184.212L1173.65 187.768C1175.99 192.123 1177.33 197.597 1177.33 204.465H1184.83H1192.33C1192.33 195.654 1190.61 187.626 1186.86 180.657L1180.25 184.212ZM1184.83 204.465H1177.33C1177.33 216.13 1173.17 225.384 1165.04 232.615L1170.02 238.22L1175 243.826C1186.47 233.635 1192.33 220.24 1192.33 204.465H1184.83ZM1170.02 238.22L1165.07 232.587C1156.91 239.757 1145.26 243.787 1129.08 243.787V251.287V258.787C1147.73 258.787 1163.31 254.106 1174.97 243.853L1170.02 238.22ZM1129.08 251.287V243.787C1122.51 243.787 1116.42 242.992 1110.68 241.435L1108.72 248.673L1106.75 255.912C1113.86 257.84 1121.27 258.787 1129.08 258.787V251.287ZM1108.72 248.673L1110.68 241.435C1104.57 239.779 1100.04 238.025 1096.68 236.085L1092.93 242.576L1089.17 249.066C1094.09 251.917 1100.01 254.083 1106.75 255.912L1108.72 248.673ZM1092.93 242.576L1096.68 236.085C1092.78 233.827 1089.5 231.626 1086.78 229.492L1082.15 235.389L1077.51 241.287C1080.89 243.944 1084.79 246.533 1089.17 249.066L1092.93 242.576ZM1082.15 235.389L1086.78 229.492C1083.66 227.041 1082.05 225.575 1081.36 224.715L1075.5 229.4L1069.65 234.086C1071.57 236.492 1074.53 238.946 1077.51 241.287L1082.15 235.389ZM1075.5 229.4L1081.36 224.715L1079.18 221.993L1073.33 226.678L1067.47 231.363L1069.65 234.086L1075.5 229.4ZM1073.33 226.678L1078.63 231.982L1094.2 216.411L1088.9 211.107L1083.59 205.804L1068.02 221.375L1073.33 226.678ZM1088.9 211.107L1082.19 214.462C1082.45 214.979 1082.72 215.402 1082.9 215.671C1083.1 215.957 1083.29 216.219 1083.44 216.424C1083.6 216.629 1083.76 216.846 1083.9 217.023C1084.04 217.212 1084.18 217.387 1084.31 217.567L1090.31 213.067L1096.31 208.567C1096.12 208.312 1095.94 208.078 1095.8 207.887C1095.64 207.683 1095.53 207.545 1095.44 207.424C1095.35 207.302 1095.33 207.265 1095.34 207.279C1095.34 207.29 1095.37 207.333 1095.41 207.403C1095.45 207.47 1095.52 207.59 1095.61 207.753L1088.9 211.107ZM1090.31 213.067L1084.31 217.567C1085.11 218.627 1086.16 219.62 1086.94 220.333C1087.83 221.14 1088.92 222.086 1090.09 223.099L1095 217.423L1099.9 211.747C1098.67 210.691 1097.76 209.895 1097.06 209.259C1096.72 208.947 1096.49 208.724 1096.33 208.569C1096.16 208.394 1096.19 208.409 1096.31 208.567L1090.31 213.067ZM1095 217.423L1090.09 223.099C1092.93 225.548 1096.11 227.704 1099.39 229.471L1102.94 222.867L1106.5 216.264C1104.12 214.982 1101.85 213.436 1099.9 211.747L1095 217.423ZM1102.94 222.867L1099.39 229.471C1102.87 231.346 1107.14 232.942 1112.14 234.338L1114.16 227.114L1116.18 219.89C1111.81 218.673 1108.68 217.437 1106.5 216.264L1102.94 222.867ZM1114.16 227.114L1112.14 234.338C1117.63 235.869 1123.34 236.465 1129.08 236.465V228.965V221.465C1124.36 221.465 1120.05 220.971 1116.18 219.89L1114.16 227.114ZM1129.08 228.965V236.465C1139.83 236.465 1149.37 233.888 1156.79 227.613L1151.94 221.887L1147.1 216.162C1143.19 219.468 1137.49 221.465 1129.08 221.465V228.965ZM1151.94 221.887L1156.78 227.621C1163.92 221.598 1167.83 213.662 1167.83 204.356H1160.33H1152.83C1152.83 208.988 1151.07 212.813 1147.11 216.153L1151.94 221.887Z" fill="#1E1951"/>
<path d="M58.5028 190.34L52.8995 187.335L52.8424 181.22L58.3885 178.11L63.9918 181.116L64.049 187.23L58.5028 190.34Z" fill="#EF882E"/>
<path d="M118.949 215.333L113.345 212.327L113.288 206.213L118.834 203.103L124.438 206.109L124.495 212.223L118.949 215.333Z" fill="#EF882E"/>
<path d="M97.7218 161.558L92.1185 158.553L92.0613 152.438L97.6075 149.328L103.211 152.334L103.268 158.449L97.7218 161.558Z" fill="#EF882E"/>
<path d="M58.7218 161.34L53.1185 158.335L53.0613 152.22L58.6075 149.11L64.2108 152.116L64.268 158.23L58.7218 161.34Z" fill="#EF882E"/>
<path d="M42.7636 151.459L37.7 148.448L37.6428 142.334L42.6493 139.229L47.7129 142.239L47.77 148.354L42.7636 151.459Z" fill="#EF882E"/>
<path d="M5.12092 156.808L0.0572604 153.792L1.02799e-05 147.665L5.00642 144.555L10.0701 147.571L10.1273 153.698L5.12092 156.808Z" fill="#EF882E"/>
<path d="M10.1259 193.363L5.06227 190.347L5.00502 184.22L10.0114 181.11L15.0751 184.126L15.1323 190.253L10.1259 193.363Z" fill="#EF882E"/>
<path d="M125.119 130.35L120.055 127.334L119.998 121.207L125.005 118.097L130.068 121.113L130.125 127.24L125.119 130.35Z" fill="#EF882E"/>
<path d="M93.7985 126.579L88.6073 123.564L88.55 117.437L93.684 114.325L98.8752 117.34L98.9325 123.467L93.7985 126.579Z" fill="#EF882E"/>
<path d="M80.7364 144.995L75.3708 142.113L75.316 136.248L80.6268 133.265L85.9923 136.148L86.0471 142.013L80.7364 144.995Z" fill="#1E1951"/>
<path d="M64.8579 134.814L59.5815 131.931L59.5267 126.066L64.7483 123.084L70.0247 125.968L70.0795 131.833L64.8579 134.814Z" fill="#1E1951"/>
<path d="M33.8304 178.286L28.554 175.403L28.4992 169.538L33.7208 166.557L38.9971 169.44L39.0519 175.305L33.8304 178.286Z" fill="#1E1951"/>
<path d="M63.8799 221.099L58.6035 218.215L58.5487 212.35L63.7703 209.369L69.0467 212.252L69.1015 218.117L63.8799 221.099Z" fill="#1E1951"/>
<path d="M86.8578 205.287L81.5815 202.403L81.5266 196.538L86.7482 193.557L92.0246 196.44L92.0794 202.305L86.8578 205.287Z" fill="#1E1951"/>
<path d="M106.511 180.884L111.64 183.754L111.694 189.59L106.62 192.556L101.491 189.686L101.437 183.85L106.511 180.884Z" fill="#1E1951"/>
<path d="M122.736 175.187L117.933 172.597L117.884 167.329L122.638 164.651L127.441 167.24L127.491 172.508L122.736 175.187Z" fill="#1E1951"/>
<path d="M112.477 143.513L107.707 140.924L107.657 135.656L112.379 132.977L117.15 135.567L117.199 140.835L112.477 143.513Z" fill="#1E1951"/>
<path d="M142.87 134.529L135.909 130.551L135.833 122.464L142.719 118.356L149.68 122.334L149.756 130.421L142.87 134.529Z" fill="#1E1951"/>
<path d="M153.181 121.527L145.948 117.342L145.869 108.838L153.023 104.519L160.256 108.703L160.335 117.207L153.181 121.527Z" fill="#1E1951"/>
<path d="M192.841 118.47L186.171 114.712L186.1 107.074L192.698 103.192L199.367 106.95L199.439 114.588L192.841 118.47Z" fill="white"/>
<path d="M192.841 118.47L186.171 114.712L186.1 107.074L192.698 103.192L199.367 106.95L199.439 114.588L192.841 118.47Z" fill="white"/>
<path d="M192.841 118.47L186.171 114.712L186.1 107.074L192.698 103.192L199.367 106.95L199.439 114.588L192.841 118.47Z" fill="white"/>
<path d="M192.841 118.47L186.171 114.712L186.1 107.074L192.698 103.192L199.367 106.95L199.439 114.588L192.841 118.47Z" fill="white"/>
<path d="M192.841 118.47L186.171 114.712L186.1 107.074L192.698 103.192L199.367 106.95L199.439 114.588L192.841 118.47Z" fill="white"/>
<path d="M192.841 118.47L186.171 114.712L186.1 107.074L192.698 103.192L199.367 106.95L199.439 114.588L192.841 118.47Z" fill="white"/>
<path d="M163.983 134.68L156.237 130.228L156.153 121.179L163.814 116.583L171.56 121.035L171.644 130.084L163.983 134.68Z" fill="white"/>
<path d="M163.983 134.68L156.237 130.228L156.153 121.179L163.814 116.583L171.56 121.035L171.644 130.084L163.983 134.68Z" fill="white"/>
<path d="M163.983 134.68L156.237 130.228L156.153 121.179L163.814 116.583L171.56 121.035L171.644 130.084L163.983 134.68Z" fill="white"/>
<path d="M163.983 134.68L156.237 130.228L156.153 121.179L163.814 116.583L171.56 121.035L171.644 130.084L163.983 134.68Z" fill="white"/>
<path d="M163.983 134.68L156.237 130.228L156.153 121.179L163.814 116.583L171.56 121.035L171.644 130.084L163.983 134.68Z" fill="white"/>
<path d="M163.983 134.68L156.237 130.228L156.153 121.179L163.814 116.583L171.56 121.035L171.644 130.084L163.983 134.68Z" fill="white"/>
<path d="M158.208 194.219L150.901 190.127L150.823 181.809L158.052 177.581L165.359 181.673L165.437 189.992L158.208 194.219Z" fill="white"/>
<path d="M158.208 194.219L150.901 190.127L150.823 181.809L158.052 177.581L165.359 181.673L165.437 189.992L158.208 194.219Z" fill="white"/>
<path d="M158.208 194.219L150.901 190.127L150.823 181.809L158.052 177.581L165.359 181.673L165.437 189.992L158.208 194.219Z" fill="white"/>
<path d="M158.208 194.219L150.901 190.127L150.823 181.809L158.052 177.581L165.359 181.673L165.437 189.992L158.208 194.219Z" fill="white"/>
<path d="M158.208 194.219L150.901 190.127L150.823 181.809L158.052 177.581L165.359 181.673L165.437 189.992L158.208 194.219Z" fill="white"/>
<path d="M158.208 194.219L150.901 190.127L150.823 181.809L158.052 177.581L165.359 181.673L165.437 189.992L158.208 194.219Z" fill="white"/>
<path d="M151.919 206.5L158.847 210.75V219.25L151.919 223.5L144.991 219.25V210.75L151.919 206.5Z" fill="white"/>
<path d="M151.919 206.5L158.847 210.75V219.25L151.919 223.5L144.991 219.25V210.75L151.919 206.5Z" fill="white"/>
<path d="M151.919 206.5L158.847 210.75V219.25L151.919 223.5L144.991 219.25V210.75L151.919 206.5Z" fill="white"/>
<path d="M151.919 206.5L158.847 210.75V219.25L151.919 223.5L144.991 219.25V210.75L151.919 206.5Z" fill="white"/>
<path d="M151.919 206.5L158.847 210.75V219.25L151.919 223.5L144.991 219.25V210.75L151.919 206.5Z" fill="white"/>
<path d="M151.919 206.5L158.847 210.75V219.25L151.919 223.5L144.991 219.25V210.75L151.919 206.5Z" fill="white"/>
<path d="M196.013 222.724L190.346 219.617L190.287 213.298L195.894 210.086L201.561 213.193L201.62 219.512L196.013 222.724Z" fill="white"/>
<path d="M196.013 222.724L190.346 219.617L190.287 213.298L195.894 210.086L201.561 213.193L201.62 219.512L196.013 222.724Z" fill="white"/>
<path d="M196.013 222.724L190.346 219.617L190.287 213.298L195.894 210.086L201.561 213.193L201.62 219.512L196.013 222.724Z" fill="white"/>
<path d="M196.013 222.724L190.346 219.617L190.287 213.298L195.894 210.086L201.561 213.193L201.62 219.512L196.013 222.724Z" fill="white"/>
<path d="M196.013 222.724L190.346 219.617L190.287 213.298L195.894 210.086L201.561 213.193L201.62 219.512L196.013 222.724Z" fill="white"/>
<path d="M196.013 222.724L190.346 219.617L190.287 213.298L195.894 210.086L201.561 213.193L201.62 219.512L196.013 222.724Z" fill="white"/>
<path d="M130.122 114.416L125.478 111.711L125.427 106.216L130.019 103.425L134.663 106.129L134.714 111.625L130.122 114.416Z" fill="#1E1951"/>
<path d="M120.72 103.313L115.76 100.611L115.708 95.1159L120.618 92.3219L125.578 95.0236L125.63 100.519L120.72 103.313Z" fill="#1E1951"/>
<path d="M99.9808 232.116L94.852 229.245L94.7974 223.409L99.8718 220.444L105.001 223.314L105.055 229.15L99.9808 232.116Z" fill="#1E1951"/>
<path d="M121.179 248.328L115.867 245.459L115.812 239.623L121.07 236.656L126.382 239.525L126.436 245.361L121.179 248.328Z" fill="#1E1951"/>
<path d="M126.705 222.77L132.019 225.639L132.074 231.475L126.815 234.442L121.501 231.574L121.446 225.738L126.705 222.77Z" fill="#1E1951"/>
<path d="M141.628 213.947L136.689 211L136.802 205.304L141.852 202.555L146.791 205.501L146.678 211.198L141.628 213.947Z" fill="#1E1951"/>
<path d="M139.469 229.154L132.522 225.107L132.718 217.372L139.862 213.682L146.809 217.729L146.613 225.464L139.469 229.154Z" fill="#1E1951"/>
<path d="M139.194 162.091L133.014 158.569L132.947 151.411L139.061 147.774L145.241 151.296L145.308 158.455L139.194 162.091Z" fill="#EF882E"/>
<path d="M154.917 151.271L145.645 145.853L145.542 134.843L154.711 129.252L163.983 134.671L164.086 145.68L154.917 151.271Z" fill="#EF882E"/>
<path d="M164.59 164.053L157.733 160.139L157.659 152.185L164.441 148.144L171.299 152.057L171.373 160.012L164.59 164.053Z" fill="#EF882E"/>
<path d="M162.018 107.834L155.9 104.214L155.96 97.0765L162.137 93.5596L168.255 97.1798L168.195 104.317L162.018 107.834Z" fill="#EF882E"/>
<path d="M142.057 193.577L134.789 189.693L134.715 181.789L141.909 177.769L149.177 181.653L149.251 189.558L142.057 193.577Z" fill="#EF882E"/>
<path d="M152.746 237.958L146.056 234.173L145.984 226.48L152.602 222.572L159.292 226.356L159.364 234.049L152.746 237.958Z" fill="#EF882E"/>
<path d="M88.1738 244.114L82.5705 241.109L82.5134 234.994L88.0595 231.884L93.6628 234.89L93.72 241.004L88.1738 244.114Z" fill="#EF882E"/>
<path d="M79.2894 177.692L73.1675 174.408L73.1051 167.728L79.1645 164.33L85.2863 167.614L85.3488 174.294L79.2894 177.692Z" fill="#EF882E"/>
<path d="M151.919 190.5L158.847 194.75V203.25L151.919 207.5L144.991 203.25V194.75L151.919 190.5Z" fill="#1E1951"/>
<path d="M166.636 230.326L159.46 226.113L159.38 217.555L166.476 213.209L173.652 217.421L173.732 225.98L166.636 230.326Z" fill="#1E1951"/>
<path d="M166.498 215.867L158.706 211.759L158.628 203.4L166.342 199.148L174.133 203.256L174.211 211.615L166.498 215.867Z" fill="#EF882E"/>
<path d="M900.739 318.188L917.48 297.088H923.384V340.5H916.572V308.895L900.739 328.724L884.936 308.895V340.5H878.125V297.088H883.998L900.739 318.188ZM930.801 340.5L948.783 297.088H955.595L973.577 340.5H966.463L961.801 329.026H942.577L937.915 340.5H930.801ZM952.204 304.838L945.059 322.82H959.318L952.204 304.838ZM981.055 340.5V297.088H999.34C1003.34 297.088 1006.67 298.39 1009.33 300.933C1011.96 303.506 1013.3 306.685 1013.3 310.438C1013.3 312.225 1012.99 313.89 1012.39 315.434C1011.78 316.978 1011.06 318.188 1010.21 319.066C1009.36 319.975 1008.51 320.731 1007.66 321.397C1006.82 322.063 1006.09 322.518 1005.49 322.76L1004.61 323.153L1014.54 340.5H1007.09L997.796 323.759H987.866V340.5H981.055ZM1006.45 310.438C1006.45 308.41 1005.76 306.715 1004.4 305.353C1003.03 303.99 1001.34 303.294 999.34 303.294H987.866V317.553H999.34C1001.34 317.553 1003.03 316.887 1004.4 315.524C1005.76 314.162 1006.45 312.467 1006.45 310.438ZM1031.28 297.088V318.188L1050.8 297.088H1059.49L1042.75 315.07L1060.73 340.5H1052.35L1038.09 320.035L1031.28 327.482V340.5H1024.47V297.088H1031.28ZM1067.58 340.5V297.088H1074.39V340.5H1067.58ZM1116.83 297.088H1123.64V340.5H1117.77L1093.58 309.197V340.5H1086.77V297.088H1092.64L1116.83 328.421V297.088ZM1159.91 317.553H1175.08V333.053C1174.93 333.265 1174.68 333.567 1174.35 333.931C1174.02 334.294 1173.26 334.96 1172.11 335.898C1170.96 336.837 1169.72 337.654 1168.39 338.351C1167.05 339.047 1165.33 339.683 1163.18 340.258C1161.03 340.833 1158.79 341.105 1156.49 341.105C1150.01 341.105 1144.56 338.956 1140.14 334.627C1135.75 330.328 1133.54 325.03 1133.54 318.794C1133.54 312.558 1135.75 307.29 1140.14 302.961C1144.56 298.662 1150.01 296.482 1156.49 296.482C1158.7 296.482 1160.82 296.785 1162.82 297.36C1164.84 297.936 1166.51 298.632 1167.84 299.449C1169.17 300.297 1170.32 301.114 1171.29 301.901C1172.29 302.719 1173.02 303.415 1173.47 303.99L1174.14 304.838L1169.81 309.197C1169.69 309.046 1169.54 308.834 1169.29 308.531C1169.05 308.229 1168.54 307.714 1167.69 306.927C1166.87 306.17 1165.99 305.504 1165.03 304.959C1164.09 304.414 1162.85 303.899 1161.33 303.415C1159.82 302.931 1158.18 302.688 1156.49 302.688C1152.01 302.688 1148.19 304.263 1145.05 307.381C1141.93 310.499 1140.35 314.313 1140.35 318.794C1140.35 323.305 1141.93 327.119 1145.05 330.237C1148.16 333.386 1151.98 334.93 1156.49 334.93C1158 334.93 1159.43 334.809 1160.79 334.506C1162.15 334.203 1163.27 333.84 1164.12 333.416C1165 332.992 1165.75 332.538 1166.42 332.114C1167.08 331.69 1167.54 331.327 1167.84 331.024L1168.3 330.57V323.759H1159.91V317.553Z" fill="#1E1951"/>
<path d="M900.739 318.188L899.956 318.81L900.739 319.797L901.523 318.81L900.739 318.188ZM917.48 297.088V296.088H916.997L916.697 296.466L917.48 297.088ZM923.384 297.088H924.384V296.088H923.384V297.088ZM923.384 340.5V341.5H924.384V340.5H923.384ZM916.572 340.5H915.572V341.5H916.572V340.5ZM916.572 308.895H917.572V306.039L915.791 308.271L916.572 308.895ZM900.739 328.724L899.957 329.347L900.738 330.327L901.521 329.348L900.739 328.724ZM884.936 308.895L885.718 308.271L883.936 306.035V308.895H884.936ZM884.936 340.5V341.5H885.936V340.5H884.936ZM878.125 340.5H877.125V341.5H878.125V340.5ZM878.125 297.088V296.088H877.125V297.088H878.125ZM883.998 297.088L884.781 296.466L884.481 296.088H883.998V297.088ZM900.739 318.188L901.523 318.81L918.264 297.709L917.48 297.088L916.697 296.466L899.956 317.567L900.739 318.188ZM917.48 297.088V298.088H923.384V297.088V296.088H917.48V297.088ZM923.384 297.088H922.384V340.5H923.384H924.384V297.088H923.384ZM923.384 340.5V339.5H916.572V340.5V341.5H923.384V340.5ZM916.572 340.5H917.572V308.895H916.572H915.572V340.5H916.572ZM916.572 308.895L915.791 308.271L899.958 328.1L900.739 328.724L901.521 329.348L917.354 309.518L916.572 308.895ZM900.739 328.724L901.521 328.1L885.718 308.271L884.936 308.895L884.154 309.518L899.957 329.347L900.739 328.724ZM884.936 308.895H883.936V340.5H884.936H885.936V308.895H884.936ZM884.936 340.5V339.5H878.125V340.5V341.5H884.936V340.5ZM878.125 340.5H879.125V297.088H878.125H877.125V340.5H878.125ZM878.125 297.088V298.088H883.998V297.088V296.088H878.125V297.088ZM883.998 297.088L883.215 297.709L899.956 318.81L900.739 318.188L901.523 317.567L884.781 296.466L883.998 297.088ZM930.801 340.5L929.877 340.117L929.304 341.5H930.801V340.5ZM948.783 297.088V296.088H948.115L947.859 296.705L948.783 297.088ZM955.595 297.088L956.518 296.705L956.263 296.088H955.595V297.088ZM973.577 340.5V341.5H975.074L974.501 340.117L973.577 340.5ZM966.463 340.5L965.536 340.876L965.79 341.5H966.463V340.5ZM961.801 329.026L962.727 328.65L962.474 328.026H961.801V329.026ZM942.577 329.026V328.026H941.904L941.651 328.65L942.577 329.026ZM937.915 340.5V341.5H938.588L938.841 340.876L937.915 340.5ZM952.204 304.838L953.134 304.47L952.206 302.125L951.275 304.469L952.204 304.838ZM945.059 322.82L944.13 322.451L943.586 323.82H945.059V322.82ZM959.318 322.82V323.82H960.789L960.248 322.452L959.318 322.82ZM930.801 340.5L931.725 340.883L949.707 297.471L948.783 297.088L947.859 296.705L929.877 340.117L930.801 340.5ZM948.783 297.088V298.088H955.595V297.088V296.088H948.783V297.088ZM955.595 297.088L954.671 297.471L972.653 340.883L973.577 340.5L974.501 340.117L956.518 296.705L955.595 297.088ZM973.577 340.5V339.5H966.463V340.5V341.5H973.577V340.5ZM966.463 340.5L967.389 340.124L962.727 328.65L961.801 329.026L960.874 329.403L965.536 340.876L966.463 340.5ZM961.801 329.026V328.026H942.577V329.026V330.026H961.801V329.026ZM942.577 329.026L941.651 328.65L936.988 340.124L937.915 340.5L938.841 340.876L943.503 329.403L942.577 329.026ZM937.915 340.5V339.5H930.801V340.5V341.5H937.915V340.5ZM952.204 304.838L951.275 304.469L944.13 322.451L945.059 322.82L945.989 323.19L953.133 305.207L952.204 304.838ZM945.059 322.82V323.82H959.318V322.82V321.82H945.059V322.82ZM959.318 322.82L960.248 322.452L953.134 304.47L952.204 304.838L951.274 305.206L958.388 323.188L959.318 322.82ZM981.055 340.5H980.055V341.5H981.055V340.5ZM981.055 297.088V296.088H980.055V297.088H981.055ZM1009.33 300.933L1010.03 300.217L1010.02 300.209L1009.33 300.933ZM1010.21 319.066L1009.49 318.372L1009.48 318.378L1009.48 318.384L1010.21 319.066ZM1005.49 322.76L1005.11 321.831L1005.09 321.839L1005.08 321.847L1005.49 322.76ZM1004.61 323.153L1004.2 322.241L1003.19 322.692L1003.74 323.65L1004.61 323.153ZM1014.54 340.5V341.5H1016.26L1015.4 340.003L1014.54 340.5ZM1007.09 340.5L1006.22 340.985L1006.5 341.5H1007.09V340.5ZM997.796 323.759L998.67 323.273L998.384 322.759H997.796V323.759ZM987.866 323.759V322.759H986.866V323.759H987.866ZM987.866 340.5V341.5H988.866V340.5H987.866ZM987.866 303.294V302.294H986.866V303.294H987.866ZM987.866 317.553H986.866V318.553H987.866V317.553ZM981.055 340.5H982.055V297.088H981.055H980.055V340.5H981.055ZM981.055 297.088V298.088H999.34V297.088V296.088H981.055V297.088ZM999.34 297.088V298.088C1003.1 298.088 1006.17 299.303 1008.64 301.656L1009.33 300.933L1010.02 300.209C1007.16 297.477 1003.57 296.088 999.34 296.088V297.088ZM1009.33 300.933L1008.63 301.648C1011.07 304.03 1012.3 306.95 1012.3 310.438H1013.3H1014.3C1014.3 306.419 1012.86 302.982 1010.03 300.217L1009.33 300.933ZM1013.3 310.438H1012.3C1012.3 312.109 1012.01 313.65 1011.46 315.069L1012.39 315.434L1013.32 315.799C1013.97 314.13 1014.3 312.34 1014.3 310.438H1013.3ZM1012.39 315.434L1011.46 315.069C1010.88 316.531 1010.22 317.616 1009.49 318.372L1010.21 319.066L1010.93 319.761C1011.89 318.761 1012.68 317.424 1013.32 315.799L1012.39 315.434ZM1010.21 319.066L1009.48 318.384C1008.67 319.251 1007.86 319.973 1007.05 320.611L1007.66 321.397L1008.28 322.184C1009.17 321.49 1010.05 320.698 1010.94 319.749L1010.21 319.066ZM1007.66 321.397L1007.05 320.611C1006.23 321.251 1005.59 321.64 1005.11 321.831L1005.49 322.76L1005.86 323.688C1006.59 323.395 1007.4 322.876 1008.28 322.184L1007.66 321.397ZM1005.49 322.76L1005.08 321.847L1004.2 322.241L1004.61 323.153L1005.02 324.066L1005.89 323.672L1005.49 322.76ZM1004.61 323.153L1003.74 323.65L1013.67 340.997L1014.54 340.5L1015.4 340.003L1005.48 322.657L1004.61 323.153ZM1014.54 340.5V339.5H1007.09V340.5V341.5H1014.54V340.5ZM1007.09 340.5L1007.96 340.015L998.67 323.273L997.796 323.759L996.921 324.244L1006.22 340.985L1007.09 340.5ZM997.796 323.759V322.759H987.866V323.759V324.759H997.796V323.759ZM987.866 323.759H986.866V340.5H987.866H988.866V323.759H987.866ZM987.866 340.5V339.5H981.055V340.5V341.5H987.866V340.5ZM1006.45 310.438H1007.45C1007.45 308.155 1006.66 306.202 1005.1 304.645L1004.4 305.353L1003.69 306.06C1004.86 307.228 1005.45 308.665 1005.45 310.438H1006.45ZM1004.4 305.353L1005.1 304.645C1003.55 303.09 1001.6 302.294 999.34 302.294V303.294V304.294C1001.08 304.294 1002.52 304.89 1003.69 306.06L1004.4 305.353ZM999.34 303.294V302.294H987.866V303.294V304.294H999.34V303.294ZM987.866 303.294H986.866V317.553H987.866H988.866V303.294H987.866ZM987.866 317.553V318.553H999.34V317.553V316.553H987.866V317.553ZM999.34 317.553V318.553C1001.58 318.553 1003.54 317.794 1005.1 316.232L1004.4 315.524L1003.69 314.817C1002.53 315.979 1001.09 316.553 999.34 316.553V317.553ZM1004.4 315.524L1005.1 316.232C1006.66 314.675 1007.45 312.722 1007.45 310.438H1006.45H1005.45C1005.45 312.211 1004.86 313.649 1003.69 314.817L1004.4 315.524ZM1031.28 297.088H1032.28V296.088H1031.28V297.088ZM1031.28 318.188H1030.28V320.741L1032.01 318.868L1031.28 318.188ZM1050.8 297.088V296.088H1050.37L1050.07 296.409L1050.8 297.088ZM1059.49 297.088L1060.22 297.769L1061.79 296.088H1059.49V297.088ZM1042.75 315.07L1042.02 314.389L1041.47 314.984L1041.94 315.648L1042.75 315.07ZM1060.73 340.5V341.5H1062.67L1061.55 339.923L1060.73 340.5ZM1052.35 340.5L1051.53 341.072L1051.83 341.5H1052.35V340.5ZM1038.09 320.035L1038.91 319.463L1038.2 318.438L1037.35 319.36L1038.09 320.035ZM1031.28 327.482L1030.54 326.808L1030.28 327.094V327.482H1031.28ZM1031.28 340.5V341.5H1032.28V340.5H1031.28ZM1024.47 340.5H1023.47V341.5H1024.47V340.5ZM1024.47 297.088V296.088H1023.47V297.088H1024.47ZM1031.28 297.088H1030.28V318.188H1031.28H1032.28V297.088H1031.28ZM1031.28 318.188L1032.01 318.868L1051.54 297.767L1050.8 297.088L1050.07 296.409L1030.54 317.509L1031.28 318.188ZM1050.8 297.088V298.088H1059.49V297.088V296.088H1050.8V297.088ZM1059.49 297.088L1058.76 296.406L1042.02 314.389L1042.75 315.07L1043.48 315.752L1060.22 297.769L1059.49 297.088ZM1042.75 315.07L1041.94 315.648L1059.92 341.077L1060.73 340.5L1061.55 339.923L1043.57 314.493L1042.75 315.07ZM1060.73 340.5V339.5H1052.35V340.5V341.5H1060.73V340.5ZM1052.35 340.5L1053.17 339.928L1038.91 319.463L1038.09 320.035L1037.27 320.607L1051.53 341.072L1052.35 340.5ZM1038.09 320.035L1037.35 319.36L1030.54 326.808L1031.28 327.482L1032.02 328.157L1038.83 320.71L1038.09 320.035ZM1031.28 327.482H1030.28V340.5H1031.28H1032.28V327.482H1031.28ZM1031.28 340.5V339.5H1024.47V340.5V341.5H1031.28V340.5ZM1024.47 340.5H1025.47V297.088H1024.47H1023.47V340.5H1024.47ZM1024.47 297.088V298.088H1031.28V297.088V296.088H1024.47V297.088ZM1067.58 340.5H1066.58V341.5H1067.58V340.5ZM1067.58 297.088V296.088H1066.58V297.088H1067.58ZM1074.39 297.088H1075.39V296.088H1074.39V297.088ZM1074.39 340.5V341.5H1075.39V340.5H1074.39ZM1067.58 340.5H1068.58V297.088H1067.58H1066.58V340.5H1067.58ZM1067.58 297.088V298.088H1074.39V297.088V296.088H1067.58V297.088ZM1074.39 297.088H1073.39V340.5H1074.39H1075.39V297.088H1074.39ZM1074.39 340.5V339.5H1067.58V340.5V341.5H1074.39V340.5ZM1116.83 297.088V296.088H1115.83V297.088H1116.83ZM1123.64 297.088H1124.64V296.088H1123.64V297.088ZM1123.64 340.5V341.5H1124.64V340.5H1123.64ZM1117.77 340.5L1116.98 341.111L1117.28 341.5H1117.77V340.5ZM1093.58 309.197L1094.37 308.586L1092.58 306.268V309.197H1093.58ZM1093.58 340.5V341.5H1094.58V340.5H1093.58ZM1086.77 340.5H1085.77V341.5H1086.77V340.5ZM1086.77 297.088V296.088H1085.77V297.088H1086.77ZM1092.64 297.088L1093.43 296.477L1093.13 296.088H1092.64V297.088ZM1116.83 328.421L1116.04 329.032L1117.83 331.353V328.421H1116.83ZM1116.83 297.088V298.088H1123.64V297.088V296.088H1116.83V297.088ZM1123.64 297.088H1122.64V340.5H1123.64H1124.64V297.088H1123.64ZM1123.64 340.5V339.5H1117.77V340.5V341.5H1123.64V340.5ZM1117.77 340.5L1118.56 339.889L1094.37 308.586L1093.58 309.197L1092.79 309.809L1116.98 341.111L1117.77 340.5ZM1093.58 309.197H1092.58V340.5H1093.58H1094.58V309.197H1093.58ZM1093.58 340.5V339.5H1086.77V340.5V341.5H1093.58V340.5ZM1086.77 340.5H1087.77V297.088H1086.77H1085.77V340.5H1086.77ZM1086.77 297.088V298.088H1092.64V297.088V296.088H1086.77V297.088ZM1092.64 297.088L1091.85 297.699L1116.04 329.032L1116.83 328.421L1117.62 327.81L1093.43 296.477L1092.64 297.088ZM1116.83 328.421H1117.83V297.088H1116.83H1115.83V328.421H1116.83ZM1159.91 317.553V316.553H1158.91V317.553H1159.91ZM1175.08 317.553H1176.08V316.553H1175.08V317.553ZM1175.08 333.053L1175.89 333.634L1176.08 333.373V333.053H1175.08ZM1140.14 334.627L1140.84 333.913L1140.84 333.912L1140.14 334.627ZM1140.14 302.961L1139.44 302.244L1139.44 302.249L1140.14 302.961ZM1162.82 297.36L1162.54 298.321L1162.54 298.322L1162.82 297.36ZM1167.84 299.449L1168.38 298.606L1168.37 298.601L1168.36 298.597L1167.84 299.449ZM1171.29 301.901L1171.93 301.127L1171.92 301.125L1171.29 301.901ZM1173.47 303.99L1174.26 303.372L1174.26 303.371L1173.47 303.99ZM1174.14 304.838L1174.85 305.543L1175.47 304.915L1174.92 304.22L1174.14 304.838ZM1169.81 309.197L1169.03 309.822L1169.73 310.697L1170.52 309.902L1169.81 309.197ZM1167.69 306.927L1168.37 306.194L1168.37 306.193L1167.69 306.927ZM1165.03 304.959L1164.52 305.824L1164.54 305.831L1165.03 304.959ZM1145.05 307.381L1144.34 306.67L1144.34 306.674L1145.05 307.381ZM1145.05 330.237L1145.76 329.534L1145.75 329.53L1145.05 330.237ZM1164.12 333.416L1163.68 332.515L1163.67 332.522L1164.12 333.416ZM1168.3 330.57L1169 331.277L1169.3 330.985V330.57H1168.3ZM1168.3 323.759H1169.3V322.759H1168.3V323.759ZM1159.91 323.759H1158.91V324.759H1159.91V323.759ZM1159.91 317.553V318.553H1175.08V317.553V316.553H1159.91V317.553ZM1175.08 317.553H1174.08V333.053H1175.08H1176.08V317.553H1175.08ZM1175.08 333.053L1174.26 332.471C1174.14 332.644 1173.92 332.915 1173.61 333.255L1174.35 333.931L1175.09 334.606C1175.44 334.219 1175.71 333.885 1175.89 333.634L1175.08 333.053ZM1174.35 333.931L1173.61 333.255C1173.34 333.556 1172.64 334.178 1171.48 335.124L1172.11 335.898L1172.74 336.673C1173.88 335.742 1174.7 335.032 1175.09 334.606L1174.35 333.931ZM1172.11 335.898L1171.48 335.124C1170.38 336.019 1169.2 336.799 1167.92 337.464L1168.39 338.351L1168.85 339.237C1170.24 338.51 1171.54 337.655 1172.74 336.673L1172.11 335.898ZM1168.39 338.351L1167.92 337.464C1166.68 338.115 1165.03 338.728 1162.92 339.292L1163.18 340.258L1163.44 341.224C1165.63 340.637 1167.43 339.978 1168.85 339.237L1168.39 338.351ZM1163.18 340.258L1162.92 339.292C1160.86 339.842 1158.71 340.105 1156.49 340.105V341.105V342.105C1158.87 342.105 1161.2 341.824 1163.44 341.224L1163.18 340.258ZM1156.49 341.105V340.105C1150.26 340.105 1145.06 338.048 1140.84 333.913L1140.14 334.627L1139.44 335.341C1144.06 339.864 1149.76 342.105 1156.49 342.105V341.105ZM1140.14 334.627L1140.84 333.912C1136.65 329.805 1134.54 324.766 1134.54 318.794H1133.54H1132.54C1132.54 325.295 1134.86 330.852 1139.44 335.341L1140.14 334.627ZM1133.54 318.794H1134.54C1134.54 312.824 1136.65 307.813 1140.84 303.673L1140.14 302.961L1139.44 302.249C1134.86 306.767 1132.54 312.291 1132.54 318.794H1133.54ZM1140.14 302.961L1140.84 303.678C1145.06 299.568 1150.26 297.482 1156.49 297.482V296.482V295.482C1149.76 295.482 1144.06 297.756 1139.44 302.244L1140.14 302.961ZM1156.49 296.482V297.482C1158.61 297.482 1160.63 297.772 1162.54 298.321L1162.82 297.36L1163.09 296.399C1161 295.798 1158.79 295.482 1156.49 295.482V296.482ZM1162.82 297.36L1162.54 298.322C1164.51 298.88 1166.08 299.544 1167.32 300.302L1167.84 299.449L1168.36 298.597C1166.93 297.719 1165.18 296.991 1163.09 296.398L1162.82 297.36ZM1167.84 299.449L1167.3 300.293C1168.61 301.125 1169.73 301.92 1170.66 302.677L1171.29 301.901L1171.92 301.125C1170.92 300.308 1169.74 299.469 1168.38 298.606L1167.84 299.449ZM1171.29 301.901L1170.66 302.675C1171.64 303.476 1172.3 304.119 1172.69 304.61L1173.47 303.99L1174.26 303.371C1173.74 302.711 1172.95 301.962 1171.93 301.127L1171.29 301.901ZM1173.47 303.99L1172.69 304.608L1173.35 305.456L1174.14 304.838L1174.92 304.22L1174.26 303.372L1173.47 303.99ZM1174.14 304.838L1173.43 304.133L1169.1 308.493L1169.81 309.197L1170.52 309.902L1174.85 305.543L1174.14 304.838ZM1169.81 309.197L1170.59 308.573C1170.54 308.51 1170.48 308.435 1170.39 308.317C1170.31 308.204 1170.2 308.068 1170.08 307.907L1169.29 308.531L1168.51 309.156C1168.63 309.298 1168.72 309.418 1168.8 309.525C1168.88 309.627 1168.96 309.733 1169.03 309.822L1169.81 309.197ZM1169.29 308.531L1170.08 307.907C1169.78 307.536 1169.21 306.973 1168.37 306.194L1167.69 306.927L1167.01 307.66C1167.87 308.455 1168.33 308.921 1168.51 309.156L1169.29 308.531ZM1167.69 306.927L1168.37 306.193C1167.5 305.392 1166.56 304.677 1165.52 304.087L1165.03 304.959L1164.54 305.831C1165.43 306.331 1166.24 306.948 1167.01 307.661L1167.69 306.927ZM1165.03 304.959L1165.53 304.094C1164.5 303.499 1163.19 302.959 1161.64 302.463L1161.33 303.415L1161.03 304.367C1162.5 304.84 1163.67 305.329 1164.52 305.824L1165.03 304.959ZM1161.33 303.415L1161.64 302.463C1160.02 301.944 1158.28 301.688 1156.49 301.688V302.688V303.688C1158.09 303.688 1159.62 303.917 1161.03 304.367L1161.33 303.415ZM1156.49 302.688V301.688C1151.75 301.688 1147.68 303.366 1144.34 306.67L1145.05 307.381L1145.75 308.091C1148.71 305.159 1152.27 303.688 1156.49 303.688V302.688ZM1145.05 307.381L1144.34 306.674C1141.03 309.982 1139.35 314.052 1139.35 318.794H1140.35H1141.35C1141.35 314.575 1142.82 311.016 1145.75 308.088L1145.05 307.381ZM1140.35 318.794H1139.35C1139.35 323.566 1141.03 327.636 1144.34 330.944L1145.05 330.237L1145.75 329.53C1142.83 326.603 1141.35 323.044 1141.35 318.794H1140.35ZM1145.05 330.237L1144.34 330.941C1147.65 334.286 1151.72 335.93 1156.49 335.93V334.93V333.93C1152.23 333.93 1148.68 332.485 1145.76 329.534L1145.05 330.237ZM1156.49 334.93V335.93C1158.06 335.93 1159.55 335.805 1161 335.482L1160.79 334.506L1160.57 333.53C1159.3 333.813 1157.95 333.93 1156.49 333.93V334.93ZM1160.79 334.506L1161 335.482C1162.41 335.17 1163.62 334.785 1164.57 334.31L1164.12 333.416L1163.67 332.522C1162.92 332.895 1161.89 333.236 1160.57 333.53L1160.79 334.506ZM1164.12 333.416L1164.55 334.317C1165.48 333.869 1166.27 333.392 1166.96 332.958L1166.42 332.114L1165.88 331.271C1165.23 331.684 1164.51 332.115 1163.68 332.515L1164.12 333.416ZM1166.42 332.114L1166.96 332.958C1167.66 332.508 1168.18 332.101 1168.55 331.732L1167.84 331.024L1167.13 330.317C1166.9 330.553 1166.51 330.873 1165.88 331.271L1166.42 332.114ZM1167.84 331.024L1168.55 331.732L1169 331.277L1168.3 330.57L1167.59 329.863L1167.13 330.317L1167.84 331.024ZM1168.3 330.57H1169.3V323.759H1168.3H1167.3V330.57H1168.3ZM1168.3 323.759V322.759H1159.91V323.759V324.759H1168.3V323.759ZM1159.91 323.759H1160.91V317.553H1159.91H1158.91V323.759H1159.91Z" fill="#1E1951"/>
</svg>
